<?xml version="1.0" encoding="UTF-8"?>
<!DOCTYPE svg PUBLIC "-//W3C//DTD SVG 1.1//EN" "http://www.w3.org/Graphics/SVG/1.1/DTD/svg11.dtd">
<!-- Creator: CorelDRAW -->
<svg xmlns="http://www.w3.org/2000/svg" xml:space="preserve" width="500px" height="500px" style="shape-rendering:geometricPrecision; text-rendering:geometricPrecision; image-rendering:optimizeQuality; fill-rule:evenodd; clip-rule:evenodd"
viewBox="0 0 500 500"
 xmlns:xlink="http://www.w3.org/1999/xlink">
 <defs>
  <style type="text/css">
   <![CDATA[
    .str1 {stroke:white;stroke-width:0.588235}
    .str0 {stroke:white;stroke-width:2.20588}
    .str2 {stroke:white;stroke-width:2.94118}
    .fil0 {fill:none}
    .fil1 {fill:white}
    .fil2 {fill:white;fill-rule:nonzero}
   ]]>
  </style>
 </defs>
 <g id="Слой_x0020_1">
  <metadata id="CorelCorpID_0Corel-Layer"/>
  <path class="fil0 str0" d="M44.1176 202.289c20.5156,-101.081 111.464,-177.289 220.519,-177.289 109.302,0 200.415,76.5532 220.657,177.976m0 85.2238c-20.2418,101.423 -111.356,177.976 -220.657,177.976 -109.055,0 -200.003,-76.2079 -220.519,-177.289"/>
  <path class="fil0 str0" d="M42.9988 202.289c20.2971,3.96176 35.62,21.845 35.62,43.2997 0,21.4547 -15.3229,39.3379 -35.62,43.2997"/>
  <path class="fil1 str1" d="M485.294 238.235c4.06029,0 7.35294,3.29294 7.35294,7.35294 0,4.06029 -3.29265,7.35294 -7.35294,7.35294 -4.06029,0 -7.35294,-3.29265 -7.35294,-7.35294 0,-4.06 3.29265,-7.35294 7.35294,-7.35294z"/>
  <g id="_148467280">
   <path id="_149944784" class="fil0 str0" d="M486.471 288.2c-18.8029,-5.04971 -32.6491,-22.2171 -32.6491,-42.6118 0,-20.395 13.8465,-37.5624 32.6494,-42.6118"/>
   <path id="_149944976" class="fil2" d="M68.26 294.296l14.5891 0c2.98735,0 5.23,0.542353 6.71147,1.63529 1.48971,1.09294 2.23441,2.73647 2.23441,4.93029 0,1.40882 -0.412941,2.63118 -1.22235,3.67559 -0.817941,1.04441 -1.83794,1.74088 -3.07647,2.08882 1.74059,0.429118 3.03588,1.22265 3.89412,2.39647 0.85,1.17382 1.27912,2.45294 1.27912,3.84559 0,1.95912 -0.720588,3.55412 -2.15353,4.77676 -1.44118,1.22235 -3.57029,1.83765 -6.38765,1.83765l-15.8682 0 0 -25.1865zm6.71971 10.46l4.29088 0c2.07265,0 3.57029,-0.267353 4.49324,-0.785294 0.922941,-0.518235 1.38441,-1.34412 1.38441,-2.46941 0,-1.06059 -0.429118,-1.81353 -1.28735,-2.25882 -0.866176,-0.453235 -2.39618,-0.68 -4.59029,-0.68l-4.29088 0 0 6.19353zm0 10.46l5.26235 0c1.89441,0 3.27882,-0.235 4.15324,-0.688235 0.866176,-0.461471 1.30353,-1.28735 1.30353,-2.46941 0,-1.23059 -0.502059,-2.08059 -1.49794,-2.55 -0.995588,-0.469706 -2.93059,-0.696471 -5.81265,-0.696471l-3.40853 0 0 6.40412zm22.8062 -20.92l6.67118 0 0 9.22118 9.52912 0 0 -9.22118 6.69529 0 0 25.1865 -6.69529 0 0 -10.5815 -9.52912 0 0 10.5815 -6.67118 0 0 -25.1865zm29.4371 0l6.40382 0 0 15.8194 10.2494 -15.8194 6.54176 0 0 25.1865 -6.40412 0 0 -16.1029 -10.3871 16.1029 -6.40382 0 0 -25.1865zm30.2141 0l8.25794 0 6.25824 17.5521 6.30676 -17.5521 8.23353 0 0 25.1865 -5.66706 0 0 -16.5806 -6.145 16.5806 -5.69147 0 -5.86147 -16.5806 0 16.5806 -5.69147 0 0 -25.1865zm40.0832 7.68294l-6.04794 -1.09294c0.680294,-2.43676 1.84588,-4.23412 3.50559,-5.40824 1.66794,-1.16559 4.12912,-1.75676 7.39971,-1.75676 2.97941,0 5.18971,0.356176 6.64676,1.06059 1.44941,0.704412 2.47765,1.595 3.06853,2.67971 0.590882,1.085 0.890588,3.06853 0.890588,5.96676l-0.0729412 7.78029c0,2.21029 0.105294,3.84559 0.323824,4.89824 0.210588,1.04412 0.615294,2.17765 1.19824,3.37588l-6.59824 0c-0.17,-0.445294 -0.388529,-1.10118 -0.639412,-1.96735 -0.105294,-0.396765 -0.186471,-0.655882 -0.235,-0.785294 -1.14147,1.10912 -2.35588,1.935 -3.65118,2.49353 -1.29529,0.550588 -2.67971,0.825882 -4.15324,0.825882 -2.59088,0 -4.63912,-0.704412 -6.12882,-2.105 -1.49765,-1.40882 -2.24235,-3.18971 -2.24235,-5.34324 0,-1.41676 0.34,-2.68794 1.02,-3.80529 0.68,-1.11706 1.63529,-1.96735 2.85794,-2.55824 1.22235,-0.591176 2.99529,-1.10912 5.30265,-1.55441 3.10912,-0.582941 5.27059,-1.13353 6.46882,-1.63529l0 -0.664118c0,-1.28706 -0.315588,-2.19382 -0.947353,-2.74441 -0.631471,-0.542353 -1.82147,-0.817647 -3.57824,-0.817647 -1.19029,0 -2.11324,0.234706 -2.77706,0.704412 -0.663824,0.461471 -1.19824,1.27912 -1.61088,2.45294zm8.91353 5.40824c-0.85,0.283235 -2.20206,0.623235 -4.05618,1.02 -1.84588,0.396765 -3.05206,0.785294 -3.62676,1.15765 -0.866471,0.623529 -1.30353,1.40059 -1.30353,2.34794 0,0.939118 0.347941,1.74059 1.04441,2.42059 0.696176,0.68 1.57853,1.02029 2.65529,1.02029 1.20647,0 2.34794,-0.396765 3.44088,-1.18206 0.809706,-0.599118 1.33588,-1.33588 1.58676,-2.21029 0.178235,-0.566765 0.259118,-1.65147 0.259118,-3.24647l0 -1.32765zm10.1362 -13.0912l22.79 0 0 5.38382 -8.06353 0 0 19.8026 -6.66294 0 0 -19.8026 -8.06353 0 0 -5.38382zm41.3541 17.1715l6.64676 1.10912c-0.858235,2.43676 -2.20206,4.29088 -4.04794,5.56206 -1.83794,1.27912 -4.14529,1.91059 -6.91412,1.91059 -4.38,0 -7.61824,-1.425 -9.72324,-4.29088 -1.65971,-2.29118 -2.49353,-5.18941 -2.49353,-8.67882 0,-4.17765 1.09294,-7.44853 3.27882,-9.81235 2.17794,-2.36412 4.93853,-3.54618 8.27412,-3.54618 3.74853,0 6.70353,1.23882 8.87324,3.71618 2.16147,2.47735 3.19794,6.26618 3.10882,11.3747l-16.7021 0c0.0485294,1.97559 0.582941,3.51382 1.61118,4.60676 1.02824,1.10088 2.31559,1.65147 3.84559,1.65147 1.04441,0 1.91882,-0.283235 2.63118,-0.85 0.712353,-0.574706 1.255,-1.48971 1.61118,-2.75265zm0.380588 -6.73588c-0.0488235,-1.935 -0.542647,-3.40029 -1.48971,-4.40412 -0.947353,-1.00412 -2.105,-1.50588 -3.46529,-1.50588 -1.45706,0 -2.65529,0.534412 -3.60265,1.59471 -0.947059,1.05265 -1.41676,2.49382 -1.40059,4.31529l9.95824 0zm13.8521 -10.4356l22.3206 0 0 25.1865 -6.63882 0 0 -19.7785 -9.08353 0 0 11.31c0,2.88235 -0.332059,4.89824 -0.995882,6.06412 -0.663824,1.15765 -1.40059,1.91853 -2.21029,2.28294 -0.801471,0.364412 -2.09676,0.550588 -3.88588,0.550588 -1.06059,0 -2.46118,-0.145882 -4.20206,-0.429118l0 -4.90618c0.145882,0 0.518235,0.00823529 1.11735,0.0405882 0.696176,0.0485294 1.23059,0.0726471 1.61118,0.0726471 0.898529,0 1.45735,-0.291471 1.65971,-0.890294 0.210294,-0.591176 0.307647,-2.24265 0.307647,-4.94676l0 -14.5565zm29.2021 0l6.66294 0 0 10.46 6.69529 0c2.62324,0 4.63912,0.186176 6.04765,0.566471 1.40882,0.380588 2.57471,1.19824 3.50559,2.45324 0.939118,1.255 1.40059,2.72029 1.40059,4.38 0,2.42882 -0.833824,4.26647 -2.50147,5.48912 -1.66794,1.22235 -4.16941,1.83765 -7.505,1.83765l-14.3056 0 0 -25.1865zm6.66294 20.9685l6.21765 0c1.94324,0 3.19,-0.323824 3.73235,-0.955294 0.550588,-0.631471 0.825882,-1.38441 0.825882,-2.25088 0,-1.21441 -0.477941,-2.05618 -1.41706,-2.51765 -0.939118,-0.453529 -2.60676,-0.688235 -5.01118,-0.688235l-4.34765 0 0 6.41206zm22.79 -20.9685l6.67118 0 0 9.22118 9.52912 0 0 -9.22118 6.69529 0 0 25.1865 -6.69529 0 0 -10.5815 -9.52912 0 0 10.5815 -6.67118 0 0 -25.1865zm28.0606 12.2329c0,-2.21029 0.550588,-4.35559 1.63559,-6.42824 1.09294,-2.06441 2.63912,-3.65118 4.63882,-4.73618 1.99971,-1.09294 4.23441,-1.64353 6.70353,-1.64353 3.805,0 6.93029,1.23882 9.36706,3.71618 2.43676,2.47735 3.65118,5.60235 3.65118,9.38324 0,3.805 -1.23059,6.96235 -3.68353,9.47235 -2.46118,2.50971 -5.55382,3.75647 -9.28618,3.75647 -2.31529,0 -4.50941,-0.518235 -6.60618,-1.56265 -2.09706,-1.04441 -3.69176,-2.57441 -4.78471,-4.59029 -1.085,-2.01588 -1.63559,-4.46912 -1.63559,-7.36735zm6.83324 0.356176c0,2.50176 0.590882,4.41235 1.78088,5.74 1.18206,1.32794 2.64735,1.99176 4.38824,1.99176 1.74059,0 3.19794,-0.663824 4.37176,-1.99176 1.18206,-1.32765 1.77294,-3.25441 1.77294,-5.78853 0,-2.46118 -0.590882,-4.36382 -1.77294,-5.69147 -1.17382,-1.32765 -2.63118,-1.99176 -4.37176,-1.99176 -1.74088,0 -3.20618,0.664118 -4.38824,1.99176 -1.19,1.32765 -1.78088,3.24647 -1.78088,5.74zm45.7097 -5.14088l-6.57412 1.18206c-0.218529,-1.31176 -0.720294,-2.29941 -1.50559,-2.96324 -0.785588,-0.663824 -1.79735,-0.995882 -3.04412,-0.995882 -1.66794,0 -2.98765,0.575 -3.97529,1.71647 -0.987647,1.14971 -1.48147,3.06824 -1.48147,5.75618 0,2.98735 0.501765,5.10059 1.50588,6.33118 1.00382,1.23059 2.34765,1.84588 4.03971,1.84588 1.27118,0 2.29941,-0.356176 3.10912,-1.07676 0.809412,-0.720588 1.37618,-1.95941 1.70824,-3.70794l6.54941 1.10912c-0.68,3.00353 -1.99147,5.27853 -3.91824,6.80853 -1.92706,1.53824 -4.50971,2.29941 -7.75618,2.29941 -3.68353,0 -6.62235,-1.15765 -8.80824,-3.48118 -2.19412,-2.32382 -3.28706,-5.54588 -3.28706,-9.65853 0,-4.15324 1.10118,-7.39176 3.295,-9.70706 2.20206,-2.32382 5.17353,-3.48147 8.92176,-3.48147 3.06853,0 5.50529,0.663824 7.31882,1.98353 1.80529,1.31971 3.10882,3.33559 3.90235,6.03971zm2.06441 -7.44824l22.79 0 0 5.38382 -8.06353 0 0 19.8026 -6.66294 0 0 -19.8026 -8.06353 0 0 -5.38382zm26.9109 0l6.66294 0 0 10.46 6.69529 0c2.62324,0 4.63912,0.186176 6.04765,0.566471 1.40882,0.380588 2.57471,1.19824 3.50559,2.45324 0.939118,1.255 1.40059,2.72029 1.40059,4.38 0,2.42882 -0.833824,4.26647 -2.50147,5.48912 -1.66794,1.22235 -4.16941,1.83765 -7.505,1.83765l-14.3056 0 0 -25.1865zm6.66294 20.9685l6.21765 0c1.94324,0 3.19,-0.323824 3.73235,-0.955294 0.550588,-0.631471 0.825882,-1.38441 0.825882,-2.25088 0,-1.21441 -0.477941,-2.05618 -1.41706,-2.51765 -0.939118,-0.453529 -2.60676,-0.688235 -5.01118,-0.688235l-4.34765 0 0 6.41206zm-190.183 33.2988l6.64706 0 0 10.29c1.10088,-0.121471 1.88618,-0.461471 2.34765,-1.02029 0.453529,-0.550588 1.01206,-1.765 1.65971,-3.62706 0.85,-2.48529 1.78912,-4.07206 2.80118,-4.76853 1.01206,-0.696176 2.33971,-1.04412 3.98324,-1.04412 0.502059,0 1.38441,0.0402941 2.63118,0.121176l0.0244118 4.41235c-1.75676,0 -2.88235,0.162059 -3.36794,0.493824 -0.493824,0.348235 -1.02,1.38441 -1.58676,3.10882 -0.777353,2.32382 -1.89441,3.75676 -3.34382,4.29088 2.09706,0.591176 3.87794,2.41265 5.33529,5.48118 0.0729412,0.161765 0.162059,0.323824 0.259118,0.501765l3.72412 6.94647 -7.165 0 -3.31912 -7.27824c-0.680294,-1.47353 -1.27118,-2.42088 -1.765,-2.84176 -0.502059,-0.412941 -1.23882,-0.623235 -2.21824,-0.623235l0 10.7432 -6.64706 0 0 -25.1865zm-73.3809 79.4538l-19.0741 0 0 6.63882 -5.40824 0 0 -12.0956 2.72824 0c1.14176,-1.26294 2.08088,-3.23824 2.82559,-5.92618 0.744706,-2.68794 1.19,-7.29441 1.32765,-13.8035l20.3291 0 0 19.7297 2.70412 0 0 12.0956 -5.43235 0 0 -6.63882zm-3.87 -5.45676l0.0244118 -14.2571 -8.06382 0c-0.267059,6.96265 -1.37618,11.715 -3.31912,14.2571l11.3585 0zm28.4656 -2.55824l6.64676 1.10912c-0.858235,2.43676 -2.20206,4.29088 -4.04794,5.56206 -1.83794,1.27912 -4.14529,1.91059 -6.91412,1.91059 -4.38,0 -7.61824,-1.425 -9.72324,-4.29088 -1.65971,-2.29118 -2.49353,-5.18941 -2.49353,-8.67882 0,-4.17765 1.09294,-7.44853 3.27882,-9.81235 2.17794,-2.36412 4.93853,-3.54618 8.27412,-3.54618 3.74853,0 6.70353,1.23882 8.87324,3.71618 2.16147,2.47735 3.19794,6.26618 3.10882,11.3747l-16.7021 0c0.0485294,1.97559 0.582941,3.51382 1.61118,4.60676 1.02824,1.10088 2.31559,1.65147 3.84559,1.65147 1.04441,0 1.91882,-0.283235 2.63118,-0.85 0.712353,-0.574706 1.255,-1.48971 1.61118,-2.75265zm0.380588 -6.73588c-0.0488235,-1.935 -0.542647,-3.40029 -1.48971,-4.40412 -0.947353,-1.00412 -2.105,-1.50588 -3.46529,-1.50588 -1.45706,0 -2.65529,0.534412 -3.60265,1.59471 -0.947059,1.05265 -1.41676,2.49382 -1.40059,4.31529l9.95824 0zm8.42765 -10.4356l22.79 0 0 5.38382 -8.06353 0 0 19.8026 -6.66294 0 0 -19.8026 -8.06353 0 0 -5.38382zm31.7524 7.68294l-6.04794 -1.09294c0.680294,-2.43676 1.84588,-4.23412 3.50559,-5.40824 1.66794,-1.16559 4.12912,-1.75676 7.39971,-1.75676 2.97941,0 5.18971,0.356176 6.64676,1.06059 1.44941,0.704412 2.47765,1.595 3.06853,2.67971 0.590882,1.085 0.890588,3.06853 0.890588,5.96676l-0.0729412 7.78029c0,2.21029 0.105294,3.84559 0.323824,4.89824 0.210588,1.04412 0.615294,2.17765 1.19824,3.37588l-6.59824 0c-0.17,-0.445294 -0.388529,-1.10118 -0.639412,-1.96735 -0.105294,-0.396765 -0.186471,-0.655882 -0.235,-0.785294 -1.14147,1.10912 -2.35588,1.935 -3.65118,2.49353 -1.29529,0.550588 -2.67971,0.825882 -4.15324,0.825882 -2.59088,0 -4.63912,-0.704412 -6.12882,-2.105 -1.49765,-1.40882 -2.24235,-3.18971 -2.24235,-5.34324 0,-1.41676 0.34,-2.68794 1.02,-3.80529 0.68,-1.11706 1.63529,-1.96735 2.85794,-2.55824 1.22235,-0.591176 2.99529,-1.10912 5.30265,-1.55441 3.10912,-0.582941 5.27059,-1.13353 6.46882,-1.63529l0 -0.664118c0,-1.28706 -0.315588,-2.19382 -0.947353,-2.74441 -0.631471,-0.542353 -1.82147,-0.817647 -3.57824,-0.817647 -1.19029,0 -2.11324,0.234706 -2.77706,0.704412 -0.663824,0.461471 -1.19824,1.27912 -1.61088,2.45294zm8.91353 5.40824c-0.85,0.283235 -2.20206,0.623235 -4.05618,1.02 -1.84588,0.396765 -3.05206,0.785294 -3.62676,1.15765 -0.866471,0.623529 -1.30353,1.40059 -1.30353,2.34794 0,0.939118 0.347941,1.74059 1.04441,2.42059 0.696176,0.68 1.57853,1.02029 2.65529,1.02029 1.20647,0 2.34794,-0.396765 3.44088,-1.18206 0.809706,-0.599118 1.33588,-1.33588 1.58676,-2.21029 0.178235,-0.566765 0.259118,-1.65147 0.259118,-3.24647l0 -1.32765zm14.9209 -13.0912l22.3206 0 0 25.1865 -6.63882 0 0 -19.7785 -9.08353 0 0 11.31c0,2.88235 -0.332059,4.89824 -0.995882,6.06412 -0.663824,1.15765 -1.40059,1.91853 -2.21029,2.28294 -0.801471,0.364412 -2.09676,0.550588 -3.88588,0.550588 -1.06059,0 -2.46118,-0.145882 -4.20206,-0.429118l0 -4.90618c0.145882,0 0.518235,0.00823529 1.11735,0.0405882 0.696176,0.0485294 1.23059,0.0726471 1.61118,0.0726471 0.898529,0 1.45735,-0.291471 1.65971,-0.890294 0.210294,-0.591176 0.307647,-2.24265 0.307647,-4.94676l0 -14.5565zm50.6482 0l0 25.1865 -6.62235 0 0 -10.46 -0.615294 0c-1.44118,0 -2.49382,0.186176 -3.16559,0.558529 -0.672059,0.372647 -1.41676,1.15794 -2.24265,2.35588l-0.404706 0.502059 -4.38824 7.04353 -7.75588 0 4.76853 -7.30265c1.36029,-2.08882 2.59882,-3.295 3.7,-3.61059 -1.86206,-0.105294 -3.37618,-0.817941 -4.54206,-2.12118 -1.15765,-1.30353 -1.74059,-2.97147 -1.74059,-4.99529 0,-1.62735 0.380588,-3.01971 1.14971,-4.16941 0.769118,-1.15765 1.78912,-1.94324 3.06029,-2.36412 1.27118,-0.412941 3.16559,-0.623235 5.68324,-0.623235l13.1156 0zm-6.62235 4.29088l-4.76853 0c-1.74882,0 -2.98765,0.250882 -3.7,0.744706 -0.704412,0.502059 -1.06059,1.32765 -1.06059,2.47735 0,1.15765 0.396765,1.98353 1.20618,2.49353 0.809706,0.502059 2.12941,0.761176 3.95912,0.761176l4.36382 0 0 -6.47676zm13.5688 -4.29088l8.25794 0 6.25824 17.5521 6.30676 -17.5521 8.23353 0 0 25.1865 -5.66706 0 0 -16.5806 -6.145 16.5806 -5.69147 0 -5.86147 -16.5806 0 16.5806 -5.69147 0 0 -25.1865z"/>
   <path id="_149945096" class="fil2" d="M192.434 448.27c0.145588,0 0.316471,0.112353 0.512059,0.328824 0.607941,0.670588 1.35324,1.20324 2.23588,1.60735 0.882647,0.399412 1.75676,0.603529 2.61882,0.603529 0.949118,0 1.42794,-0.291471 1.42794,-0.865882 0,-0.366471 -0.166471,-0.778529 -0.503824,-1.24088 -0.332941,-0.457941 -1.12824,-1.36559 -2.38971,-2.72265 -1.58618,-1.71971 -2.64382,-2.98941 -3.16853,-3.81794 -0.699412,-1.09912 -1.04912,-2.14412 -1.04912,-3.135 0,-1.49882 0.666176,-2.72294 1.99853,-3.67235 1.31147,-0.936765 2.92265,-1.40294 4.84206,-1.40294 1.34059,0 2.57294,0.270588 3.69706,0.815882 0.420588,0.212353 0.787059,0.457941 1.09088,0.732941 0.303824,0.274706 0.457941,0.507941 0.457941,0.695294 0,0.0873529 -0.0414706,0.170588 -0.129118,0.249706 -0.0832353,0.0791176 -0.170588,0.116471 -0.262353,0.116471 -0.137353,0 -0.341176,-0.124706 -0.607647,-0.378824 -0.441471,-0.416176 -1.01588,-0.757647 -1.73206,-1.03235 -0.716176,-0.270588 -1.40294,-0.408235 -2.06088,-0.408235 -0.407941,0 -0.741176,0.0876471 -0.995,0.262353 -0.258235,0.175 -0.387353,0.399706 -0.387353,0.678824 0,0.332941 0.162353,0.740882 0.478824,1.21971 0.316471,0.478824 0.853529,1.11588 1.60706,1.91529 2.39412,2.54382 3.85529,4.25912 4.39235,5.14588 0.562059,0.936765 0.841176,1.84029 0.841176,2.71059 0,0.736765 -0.2,1.43618 -0.595294,2.09412 -0.399706,0.662059 -0.953529,1.20324 -1.66118,1.62382 -1.34912,0.803529 -2.99353,1.20735 -4.93794,1.20735 -1.79029,0 -3.36412,-0.462353 -4.72147,-1.39059 -0.953235,-0.649706 -1.42794,-1.15765 -1.42794,-1.52382 0,-0.104118 0.0417647,-0.2 0.129118,-0.287353 0.0832353,-0.0832353 0.183235,-0.129118 0.299706,-0.129118zm18.1985 -14.7594c2.14412,0 3.21824,0.562059 3.21824,1.68618 0,0.545588 -0.283235,0.970294 -0.845294,1.27412 -0.566176,0.303824 -1.36118,0.457941 -2.38559,0.457941 -2.04,0 -3.06,-0.578824 -3.06,-1.73206 0,-1.10735 1.02412,-1.66941 3.07265,-1.68618zm3.16 4.27176l0 0.353824 -0.025 1.90265 -0.025 2.95206 -0.0373529 4.48824 0.0497059 2.52294 0.025 1.09912 -6.27 0 0.0623529 -4.48824 0.0335294 -3.96353 -0.025 -2.08588 -0.0335294 -2.31912 0.0126471 -0.462059 6.23265 0zm17.8444 4.76706l0 -2.03588 -0.025 -3.23088 -0.0123529 -1.47794 -0.0126471 -0.924118c0,-0.441471 0.15,-0.662059 0.449706,-0.662059 0.179118,0 0.304118,0.0541176 0.375,0.154118 0.0667647,0.0997059 0.104118,0.295588 0.104118,0.578529l0 0.170882c-0.00823529,0.170588 -0.0126471,0.449412 -0.0126471,0.840882l-0.0497059 4.11353 -0.0376471 3.76794 0.0376471 3.96353 0.0497059 3.97618c-1.67794,-1.04941 -4.13029,-2.49824 -7.35706,-4.34676 -3.22647,-1.85265 -5.84118,-3.30588 -7.84382,-4.36324l0.0126471 0.599412 0.120588 6.29529 0.0126471 0.840882c0,0.349706 -0.162647,0.524706 -0.487353,0.524706 -0.332941,0 -0.499412,-0.216471 -0.499412,-0.649706l0.0123529 -0.853235 0.0126471 -1.37824 0.0497059 -6.25765 -0.0997059 -8.42676c3.29324,2.04 8.36,4.96706 15.2006,8.78059zm10.7462 -7.76882l-0.0626471 8.64735 0.0626471 7.34441c0.420294,0.0582353 0.770294,0.0832353 1.04912,0.0832353 0.795294,0 1.61118,-0.141471 2.45235,-0.424706 0.836765,-0.283235 1.57353,-0.670294 2.21912,-1.15735 0.412059,-0.320588 0.840882,-0.741176 1.28647,-1.27 0.441176,-0.528824 0.799412,-1.045 1.06588,-1.54882 0.153824,-0.295588 0.320588,-0.441176 0.499412,-0.441176 0.270588,0 0.403824,0.116471 0.403824,0.341471 0,0.245588 -0.199706,0.657647 -0.603529,1.24059 -0.403824,0.578824 -0.845294,1.10324 -1.32412,1.56529 -1.04088,0.999412 -2.26471,1.69471 -3.67206,2.08588 -0.845294,0.237353 -1.65706,0.354118 -2.43971,0.354118 -1.13676,0 -2.28176,-0.241471 -3.42647,-0.732941 -1.83618,-0.770294 -3.235,-1.99412 -4.19676,-3.67206 -0.795294,-1.38647 -1.195,-2.86441 -1.195,-4.42559 0,-1.59471 0.416471,-3.09765 1.245,-4.51324 0.886765,-1.50294 2.14,-2.65647 3.75529,-3.45147 1.18235,-0.570588 2.45235,-0.853529 3.81794,-0.853529 2.34382,0 4.36735,0.790882 6.07441,2.37735 0.815882,0.757647 1.21971,1.30294 1.21971,1.63618 0,0.0873529 -0.0414706,0.170588 -0.120588,0.241471 -0.0832353,0.075 -0.170588,0.112353 -0.266471,0.112353 -0.166471,0 -0.357941,-0.158235 -0.587059,-0.478824 -0.699412,-0.965882 -1.62382,-1.73206 -2.76853,-2.29824 -1.14912,-0.566176 -2.36088,-0.845 -3.63471,-0.845 -0.3,0 -0.587059,0.025 -0.853529,0.0832353zm17.915 5.01265c-0.0164706,0.374706 -0.025,0.828529 -0.025,1.36559l0 0.732941 0.0876471 8.41824 4.13412 -0.0497059 2.92706 -0.0376471c0.478529,0 0.72,0.145882 0.72,0.441471 0,0.241471 -0.120588,0.378824 -0.366176,0.412059 -0.0582353,0.00823529 -0.395588,0.0167647 -1.01176,0.025l-13.8559 0 0.0123529 -0.632941 0.0126471 -4.07588 0.0458824 -4.36735 -0.0958824 -7.57353 12.9274 0c0.578824,0 0.907647,0.0126471 0.990882,0.0376471 0.187353,0.0458824 0.279118,0.187353 0.279118,0.412059 0,0.287353 -0.179118,0.428824 -0.537059,0.428824l-0.0832353 0 -6.11206 -0.0873529 -0.05 3.78471 1.32824 0.0123529 4.27176 -0.075 0.936765 -0.0123529c0.341176,0 0.570294,0.0291176 0.678529,0.0873529 0.108235,0.0541176 0.166471,0.170588 0.166471,0.341471 0,0.316471 -0.270588,0.474706 -0.807647,0.474706l-0.961765 -0.025 -5.61235 -0.0376471zm23.1403 10.5253l0.453824 0c2.21059,-0.00411765 3.79676,-0.0708824 4.75441,-0.191471 0.316471,-0.0585294 0.562059,-0.0876471 0.732941,-0.0876471 0.257941,0 0.391176,0.137353 0.391176,0.416471 0,0.307941 -0.145588,0.503824 -0.428824,0.582941 -0.129118,0.0414706 -0.374706,0.0623529 -0.732647,0.0623529l-13.8435 0c1.44882,-1.74029 2.66471,-3.26 3.64735,-4.56324 0.982353,-1.29882 2.01088,-2.74765 3.085,-4.34235 1.17824,-1.75706 2.00676,-3.06441 2.47735,-3.92618 0.470294,-0.861765 0.707647,-1.50294 0.707647,-1.92765 0,-0.495294 -0.187353,-0.865882 -0.562059,-1.11147 -0.374706,-0.241471 -0.936765,-0.362353 -1.69441,-0.362353 -0.757941,0 -1.53235,0.125 -2.32324,0.374706 -0.795294,0.254118 -1.46147,0.587059 -2.00676,1.00353 -0.528824,0.395294 -0.949412,0.878235 -1.26147,1.44471 -0.316471,0.566176 -0.470588,1.12412 -0.470588,1.67765 0,0.370588 0.05,0.691176 0.154118,0.957647 0.1,0.262353 0.324706,0.645294 0.674412,1.14912 0.075,0.116471 0.108235,0.229118 0.108235,0.341471 0,0.125 -0.0458824,0.233235 -0.145588,0.324706 -0.0958824,0.0958824 -0.2,0.141471 -0.316471,0.141471 -0.324706,0 -0.628824,-0.295588 -0.915882,-0.886765 -0.283235,-0.587059 -0.424706,-1.21147 -0.424706,-1.86941 0,-0.911765 0.274706,-1.77765 0.828529,-2.59794 0.624412,-0.936765 1.51118,-1.65294 2.65206,-2.15235 1.145,-0.503824 2.46882,-0.753824 3.97176,-0.753824 1.63647,0 3.03529,0.287353 4.20941,0.857941 0.861765,0.412059 1.53206,1.02412 2.01088,1.82765 0.391471,0.657647 0.587059,1.39882 0.587059,2.21912 0,0.641176 -0.116765,1.29059 -0.349706,1.94441 -0.229118,0.657647 -0.620294,1.44882 -1.16588,2.37294 -0.957647,1.61971 -2.07735,3.30588 -3.35147,5.06294l-1.45294 2.01088zm15.4547 -16.2959c2.09,0 3.83441,0.853529 5.23324,2.55235 1.35735,1.64882 2.03588,3.75941 2.03588,6.32824 0,2.66059 -0.799412,4.82971 -2.40206,6.51588 -1.34912,1.42824 -2.97294,2.14412 -4.86706,2.14412 -1.29912,0 -2.52324,-0.328824 -3.67235,-0.986765 -1.36559,-0.795 -2.40647,-1.94824 -3.12235,-3.45147 -0.566471,-1.19471 -0.853529,-2.63941 -0.853529,-4.33 0,-2.72265 0.782647,-4.89176 2.34382,-6.50324 0.691176,-0.715882 1.49882,-1.26971 2.41912,-1.66529 0.924118,-0.391471 1.88588,-0.595294 2.88529,-0.603824zm-0.241471 0.820294l-0.0626471 7.92735 0.05 6.53647 0.0126471 1.44059c1.51941,0.0164706 2.83088,-0.428824 3.93853,-1.34059 0.895,-0.749412 1.57794,-1.68618 2.05265,-2.81471 0.478529,-1.12412 0.715882,-2.38559 0.715882,-3.78441 0,-2.47324 -0.637059,-4.43824 -1.915,-5.89118 -0.570588,-0.649706 -1.23235,-1.16588 -1.99029,-1.53647 -0.753529,-0.374706 -1.50294,-0.562059 -2.24412,-0.562059 -0.120588,0 -0.307941,0.00852941 -0.557647,0.025zm16.3918 -0.820294c2.09,0 3.83441,0.853529 5.23324,2.55235 1.35735,1.64882 2.03588,3.75941 2.03588,6.32824 0,2.66059 -0.799412,4.82971 -2.40206,6.51588 -1.34912,1.42824 -2.97294,2.14412 -4.86706,2.14412 -1.29941,0 -2.52353,-0.328824 -3.67265,-0.986765 -1.36559,-0.795 -2.40647,-1.94824 -3.12235,-3.45147 -0.566471,-1.19471 -0.853529,-2.63941 -0.853529,-4.33 0,-2.72265 0.782647,-4.89176 2.34382,-6.50324 0.691176,-0.715882 1.49882,-1.26971 2.41912,-1.66529 0.924118,-0.391471 1.88588,-0.595294 2.88559,-0.603824zm-0.241471 0.820294l-0.0626471 7.92735 0.05 6.53647 0.0126471 1.44059c1.51941,0.0164706 2.83088,-0.428824 3.93853,-1.34059 0.895,-0.749412 1.57794,-1.68618 2.05265,-2.81471 0.478529,-1.12412 0.715882,-2.38559 0.715882,-3.78441 0,-2.47324 -0.637059,-4.43824 -1.915,-5.89118 -0.570588,-0.649706 -1.23235,-1.16588 -1.99029,-1.53647 -0.753529,-0.374706 -1.50294,-0.562059 -2.24412,-0.562059 -0.120588,0 -0.307941,0.00852941 -0.557647,0.025zm20.3924 5.94971c0.724412,0.482941 1.27,0.903235 1.63618,1.26971 0.932647,0.928529 1.40324,2.06912 1.40324,3.42647 0,1.22 -0.407941,2.34 -1.22,3.35588 -0.765882,0.957353 -1.89,1.68618 -3.36824,2.18147 -1.08235,0.366471 -2.18559,0.549706 -3.31824,0.549706 -2.09824,0 -3.82206,-0.537059 -5.17088,-1.60706 -0.441471,-0.349706 -0.791176,-0.787059 -1.05353,-1.30735 -0.266471,-0.520588 -0.399412,-1.04088 -0.399412,-1.56147 0,-0.699412 0.191471,-1.30706 0.574412,-1.82353 0.382941,-0.516176 0.990882,-0.999118 1.82765,-1.44471 -1.31559,-1.28647 -1.97324,-2.68529 -1.97324,-4.19676 0,-1.64853 0.670294,-2.985 2.01088,-4.00088 1.41559,-1.07412 3.17676,-1.61147 5.28324,-1.61147 1.81941,0 3.27265,0.395588 4.355,1.18676 0.861765,0.632647 1.29059,1.50294 1.29059,2.61029 0,0.624706 -0.145588,1.16588 -0.437059,1.62794 -0.295588,0.457941 -0.774412,0.907647 -1.44059,1.345zm-0.890882 -0.399706c0.657647,-0.374706 1.12824,-0.753824 1.40294,-1.14088 0.279118,-0.387353 0.416471,-0.853529 0.416471,-1.39882 0,-0.941176 -0.395588,-1.66118 -1.18235,-2.15676 -0.936765,-0.578824 -2.14441,-0.865882 -3.62647,-0.865882 -1.05324,0 -1.90265,0.128824 -2.53971,0.382941 -0.641176,0.258235 -0.957647,0.595294 -0.957647,1.02 0,0.537059 0.695294,1.21147 2.08588,2.02353 0.682941,0.391176 1.74471,0.911765 3.18088,1.56118l1.22 0.574706zm-7.61088 4.03412c-0.537059,0.279118 -0.928235,0.524706 -1.16971,0.745294 -0.612059,0.528824 -0.916176,1.16588 -0.916176,1.91529 0,0.470588 0.125,0.928529 0.370588,1.37382 0.249706,0.441471 0.587059,0.807941 1.00765,1.09088 1.19471,0.820294 2.63118,1.23235 4.305,1.23235 1.04088,0 1.92353,-0.137353 2.64382,-0.416176 0.715882,-0.275 1.07824,-0.612059 1.07824,-1.01176 0,-0.428824 -0.366471,-0.874412 -1.09912,-1.32824 -0.453824,-0.287353 -1.57794,-0.886765 -3.36412,-1.80676 -0.749412,-0.374706 -1.70294,-0.970294 -2.85618,-1.79471z"/>
   <polygon id="_149945168" class="fil1 str1" points="195.589,430 333.824,430 333.824,431.176 195.589,431.176 "/>
   <polygon id="_149945240" class="fil1 str1" points="323.529,366.332 323.529,366.332 323.529,366.332 426.471,363.235 323.529,360.138 323.529,360.138 323.529,360.138 "/>
   <polygon id="_149945312" class="fil1 str1" points="205.882,366.332 205.882,366.332 205.882,366.332 102.941,363.235 205.882,360.138 205.882,360.138 205.882,360.138 "/>
   <polygon id="_149945384" class="fil1 str1" points="73.5297,288 455.882,288 455.882,286.824 73.5297,286.824 "/>
   <g>
    <path id="_149945456" class="fil0" d="M282.431 57.3418c0.936471,9.075 0.369118,18.7274 2.46353,27.3318 3.24265,-0.841765 4.45118,-2.55235 6.91794,-3.40559 17.6688,-6.11118 28.6865,17.1424 15.5956,27.8106 -5.58147,4.54882 -12.6953,4.43029 -20.6974,0.808529 -1.42382,5.10353 0.339706,10.8279 0.0652941,16.1818"/>
    <path id="_149942072" class="fil2" d="M280.556 57.5321c-0.103824,-1.03471 0.649706,-1.96088 1.68412,-2.06471 1.03471,-0.104118 1.96088,0.649412 2.06471,1.68412l0.01 0.0973529c0.335294,3.29676 0.478824,6.64559 0.62,9.98824 0.215588,5.09176 0.43,10.1868 1.33647,14.9229 0.649412,-0.320294 1.21618,-0.681176 1.76265,-1.02882 0.961176,-0.612941 1.88824,-1.20618 3.16706,-1.64735 5.92176,-2.04706 11.2091,-1.11147 15.305,1.52176 2.58412,1.66118 4.68,4.00206 6.14353,6.68882 1.45382,2.66971 2.29294,5.70235 2.37853,8.76853 0.143824,5.10912 -1.79382,10.2956 -6.42765,14.0732l-0.0147059 0.0152941 -0.254412 0.203235 -0.0138235 0.015c-0.864706,0.676765 -1.77882,1.26471 -2.73618,1.76059 -0.940294,0.487353 -1.92382,0.882353 -2.94059,1.18353l0.000882353 0.00205882c-4.38647,1.30088 -9.28029,0.803235 -14.5109,-1.19441 -0.233824,2.22206 -0.00558824,4.60618 0.219412,6.99265 0.210588,2.21706 0.420294,4.44176 0.308235,6.645 -0.0491176,1.03941 -0.933529,1.84176 -1.97294,1.79235 -1.03971,-0.0491176 -1.84176,-0.933529 -1.79265,-1.97324 0.100882,-1.97382 -0.0952941,-4.04647 -0.291471,-6.11353 -0.333824,-3.525 -0.665294,-7.04794 0.291176,-10.4806l0.59 -2.11794 2.00441 0.906471c5.235,2.36941 10.0065,3.13824 14.0806,1.92971l0.00735294 0c0.768529,-0.227647 1.52824,-0.534118 2.26853,-0.917941 0.726176,-0.376471 1.44382,-0.840294 2.14588,-1.39029l0.00235294 0.00235294 0.238235 -0.190588 0.000882353 0.00235294c3.62824,-2.96559 5.14618,-7.03647 5.03294,-11.0456 -0.0679412,-2.45765 -0.749706,-4.90353 -1.92971,-7.07059 -1.17059,-2.14765 -2.83176,-4.01206 -4.87059,-5.32118 -3.17471,-2.04059 -7.32559,-2.74853 -12.04,-1.11882 -0.861765,0.297353 -1.60382,0.771176 -2.37147,1.26118 -1.25412,0.798824 -2.57147,1.64088 -4.68706,2.18882l-1.84559 0.479412 -0.453824 -1.86706c-1.38412,-5.68824 -1.64,-11.7035 -1.895,-17.7176 -0.137941,-3.28559 -0.279118,-6.57765 -0.604412,-9.76735l-0.01 -0.0973529z"/>
    <path id="_149942024" class="fil0" d="M286.777 126.066c12.5338,-0.22 25.1959,0.383824 37.6179,-0.697353 0.270882,-0.702647 0.195588,-1.13 0.194412,-1.54353 -5.80441,-9.86647 -0.821471,-21.41 8.44794,-24.5403 13.385,-4.52 25.4624,9.265 20.2415,22.8397 11.9197,-0.998235 23.9221,-3.68294 35.7259,-6.05735"/>
    <path id="_149941880" class="fil2" d="M286.805 127.949c-1.03941,0.015 -1.89588,-0.814706 -1.91118,-1.85382 -0.015,-1.03941 0.814706,-1.89588 1.85412,-1.91118l0.447647 -0.00764706c3.97706,-0.0632353 7.96824,-0.0479412 11.9562,-0.0317647 7.73794,0.0311765 15.4812,0.0652941 23.1862,-0.502647 -0.446176,-0.877059 -0.814412,-1.76735 -1.11412,-2.65676 -1.47206,-4.36029 -1.26676,-8.81059 0.195294,-12.6894 1.46735,-3.88971 4.20176,-7.21676 7.77353,-9.31853 1.00088,-0.588235 2.08588,-1.08676 3.24059,-1.47588 4.23735,-1.43 8.36941,-1.21706 11.9791,0.170588 2.56824,0.987059 4.86824,2.57 6.74441,4.56971 1.86618,1.98882 3.32588,4.40588 4.22471,7.07088 1.10853,3.28353 1.37,6.94912 0.515,10.6718 9.28529,-0.970294 18.5909,-2.87588 27.7971,-4.75676l4.94265 -1.01118c1.02147,-0.202647 2.01676,0.461765 2.21941,1.48324 0.202353,1.02147 -0.461765,2.01706 -1.48353,2.21941 -3.22706,0.647941 -4.16735,0.840588 -4.92971,0.996176 -10.2585,2.09618 -20.6382,4.21765 -30.9297,5.085l-0.0805882 0.00676471 -2.99147 0.249412 1.07853 -2.80529c1.46088,-3.80059 1.41471,-7.61382 0.294118,-10.9315 -0.723824,-2.14588 -1.90118,-4.09324 -3.40824,-5.7 -1.49559,-1.59382 -3.31765,-2.85235 -5.34,-3.62912 -2.82882,-1.08706 -6.07794,-1.25029 -9.42471,-0.120882 -0.876471,0.295294 -1.72588,0.689118 -2.53235,1.16294 -2.82529,1.66235 -4.99088,4.30265 -6.15735,7.39559 -1.16971,3.10441 -1.33529,6.66412 -0.158529,10.15 0.350588,1.04147 0.822059,2.07706 1.41794,3.08971l0.248824 0.424706 0.0120588 0.490588 0.005 0.200294 0 0.015c0.0179412,0.526176 0.0335294,1.11853 -0.322353,2.04441l-0.426176 1.10706 -1.17176 0.101176c-8.35471,0.726176 -16.8847,0.692353 -25.4068,0.658529 -3.96882,-0.0152941 -7.94176,-0.0302941 -11.8962,0.0314706l-0.447647 0.00794118z"/>
    <path id="_149941952" class="fil0" d="M194.642 108.148c0.322647,6.105 -0.576471,12.4238 0.545,18.3968"/>
    <path id="_149941832" class="fil2" d="M192.759 108.243c-0.0514706,-1.03912 0.748235,-1.92559 1.78735,-1.97735 1.03912,-0.0514706 1.92559,0.748235 1.97706,1.78735l0.00676471 0.129706c0.115588,2.30412 0.0620588,4.63588 0.0117647,6.96529 -0.0835294,3.75676 -0.166765,7.51882 0.495882,11.0512 0.190588,1.02176 -0.484412,2.00647 -1.50588,2.19706 -1.02147,0.190882 -2.00618,-0.484412 -2.19706,-1.50588 -0.733529,-3.91147 -0.646471,-7.86765 -0.558235,-11.8182 0.0485294,-2.24382 0.0991176,-4.48971 -0.0108824,-6.69971l-0.00676471 -0.129412z"/>
    <path id="_149941736" class="fil0" d="M195.187 126.544c10.8774,-0.595882 21.8715,0.145588 32.7221,-0.498529 -6.95912,-17.8106 14.7176,-32.1009 27.1412,-19.5759 5.00794,5.04882 5.58941,11.7282 3.69265,19.0244 8.99,1.50118 18.7453,0.175882 28.0326,0.575"/>
    <path id="_149941664" class="fil2" d="M195.289 128.426c-1.03912,0.0558824 -1.92882,-0.740588 -1.98441,-1.77971 -0.0558824,-1.03912 0.740588,-1.92882 1.77971,-1.98471l0.124118 -0.00676471 0.00764706 0c5.31559,-0.284706 10.6921,-0.255882 16.0621,-0.225882 4.69294,0.0247059 9.38265,0.0538235 14.0738,-0.141176 -1.35441,-5.13441 -0.585588,-9.93794 1.51029,-13.9068 1.56882,-2.96971 3.88912,-5.46588 6.62412,-7.28118 2.74353,-1.82147 5.90794,-2.96088 9.15147,-3.20794 4.76794,-0.364706 9.70471,1.17206 13.7515,5.25206 2.79706,2.81853 4.35882,6.09765 4.95529,9.68706 0.477353,2.87324 0.324118,5.92824 -0.307647,9.08794 4.83324,0.582353 9.91765,0.445 14.9968,0.308824 3.62765,-0.0961765 7.25735,-0.194412 10.8171,-0.0417647 1.03941,0.0405882 1.84794,0.918529 1.80735,1.95794 -0.0405882,1.03941 -0.918529,1.84794 -1.95794,1.80735 -3.47529,-0.149412 -7.02147,-0.0535294 -10.5665,0.0411765 -5.92676,0.159412 -11.8556,0.318529 -17.5594,-0.615588l-0.135294 -0.0220588 -2.04206 -0.333235 0.520882 -2.00206c0.884706,-3.40353 1.19588,-6.64029 0.708529,-9.57235 -0.470588,-2.83559 -1.70471,-5.42441 -3.91559,-7.65235 -3.18706,-3.21294 -7.06206,-4.42412 -10.795,-4.13882 -2.60206,0.197941 -5.14588,1.11559 -7.35382,2.58088 -2.21735,1.47176 -4.10088,3.49853 -5.37265,5.90559 -1.94441,3.68353 -2.44941,8.29118 -0.525588,13.2179l0.942059 2.41412 -2.58824 0.152941c-5.535,0.328235 -11.1462,0.296765 -16.7574,0.266471 -5.28,-0.0291176 -10.5644,-0.0582353 -15.8468,0.225294l-0.124412 0.00676471z"/>
    <path id="_149941616" class="fil0" d="M286.879 158.004c-0.0338235,-10.6415 -0.0688235,-21.2859 -0.102941,-31.9347"/>
    <path id="_149941544" class="fil2" d="M288.761 157.998c0.00352941,1.03912 -0.837059,1.885 -1.87647,1.88853 -1.03912,0.00323529 -1.885,-0.837353 -1.88853,-1.87647l-0.102647 -31.935c-0.00352941,-1.03912 0.837059,-1.885 1.87647,-1.88853 1.03912,-0.00323529 1.885,0.837353 1.88824,1.87676l0.102941 31.9347z"/>
    <path id="_149939792" class="fil0" d="M195.289 158.491c-0.472941,-10.58 -0.507353,-21.3618 -0.101765,-31.9456l-58.625 0.185882"/>
    <path id="_149939864" class="fil2" d="M197.171 158.411c0.0441176,1.03912 -0.763235,1.91824 -1.80235,1.96235 -1.03912,0.0438235 -1.91824,-0.763235 -1.96206,-1.80235l-0.00705882 -0.155294c-0.0635294,-1.44412 -0.121765,-2.93529 -0.170588,-4.47176 -0.0476471,-1.46235 -0.0876471,-2.96324 -0.119412,-4.48676 -0.146765,-7.01853 -0.107941,-14.0632 0.122647,-21.0229l-56.6632 0.179706c-1.03912,0.00323529 -1.885,-0.837353 -1.88853,-1.87647 -0.00323529,-1.03941 0.837353,-1.88529 1.87647,-1.88853l58.6241 -0.185882 1.96265 -0.00529412 -0.0741176 1.95559c-0.289706,7.55029 -0.354412,15.1921 -0.195294,22.7718 0.0305882,1.45382 0.0705882,2.93559 0.119412,4.44412 0.0452941,1.43441 0.103529,2.91382 0.170294,4.42647l0.00705882 0.155294z"/>
    <path id="_149939936" class="fil0" d="M389.006 116.068c4.705,7.88265 8.38706,16.8056 11.6191,25.4321 -6.94912,3.74206 -15.5447,4.25059 -22.8438,7.45941 -0.519118,2.43059 0.708235,3.28676 0.795,5.02118 1.80765,34.3026 -50.1209,31.7488 -50.2079,4.49735 -16.8226,-0.727353 -24.6991,0.502941 -41.4903,-0.473235"/>
    <path id="_149940008" class="fil2" d="M385.764 117.997c-1.06529,-1.78912 -0.477059,-4.10529 1.31206,-5.17059 1.78912,-1.06529 4.10529,-0.477059 5.17059,1.31206 2.44,4.08735 4.60618,8.42294 6.57029,12.8353 1.97176,4.42735 3.72471,8.86912 5.34676,13.2012l1.15088 3.07441 -2.90706 1.56618c-4.22706,2.27647 -8.73853,3.41147 -13.2597,4.54971 -2.48353,0.625 -4.97471,1.25441 -7.30382,2.05706 0.236765,0.664412 0.445,1.37735 0.495294,2.36941l0.000882353 0c0.73,13.8576 -6.22912,22.5456 -15.5859,26.6329 -3.82824,1.67088 -8.05,2.54147 -12.285,2.64824 -4.20618,0.106471 -8.44882,-0.537647 -12.3415,-1.885 -8.74176,-3.02588 -15.8074,-9.525 -17.2659,-19.0659 -6.26529,-0.190882 -11.2547,-0.115 -16.1606,-0.0382353 -6.635,0.102353 -13.1265,0.203529 -22.0338,-0.313529 -2.07912,-0.115588 -3.67147,-1.89647 -3.55588,-3.97529 0.115588,-2.07912 1.89647,-3.67147 3.97529,-3.55588 8.81853,0.511765 15.0915,0.413529 21.5026,0.315 5.91176,-0.0917647 11.9459,-0.186176 19.9291,0.158235l3.61765 0.156471 0.0114706 3.59676c0.025,7.83235 5.48176,13.1912 12.4365,15.5979 3.05706,1.05853 6.39735,1.56324 9.71294,1.47971 3.28912,-0.0832353 6.54,-0.746176 9.45235,-2.01765 6.65294,-2.90647 11.5968,-9.20412 11.0618,-19.3562l0 -0.0141176c-0.00352941,-0.0738235 -0.103824,-0.339118 -0.204412,-0.606765 -0.524118,-1.38912 -1.06441,-2.82206 -0.519706,-5.37471l0.402353 -1.88382 1.775 -0.780294c3.61,-1.58647 7.33971,-2.52647 11.0579,-3.46059 2.93,-0.737059 5.85294,-1.47176 8.51618,-2.49912 -1.24,-3.20912 -2.54029,-6.41176 -3.92059,-9.51353 -1.85824,-4.17471 -3.89088,-8.24824 -6.15412,-12.0394z"/>
    <path id="_149940080" class="fil0" d="M194.642 108.148c9.02147,-0.977059 16.7785,-2.30676 22.8679,-4.50765 25.0126,-9.03471 23.8185,-38.1053 49.4438,-44.875 2.80382,-0.739706 10.3744,-1.80088 15.4768,-1.42382"/>
    <path id="_149940152" class="fil2" d="M195.037 111.897c-2.06941,0.217647 -3.92676,-1.28412 -4.14441,-3.35324 -0.217647,-2.06941 1.28382,-3.92676 3.35324,-4.14441 4.40088,-0.476765 8.49412,-1.03971 12.2226,-1.75 3.61059,-0.687647 6.88118,-1.52294 9.76,-2.56294 10.9912,-3.97029 16.6088,-12.5876 22.1382,-21.0706 6.585,-10.1044 13.0656,-20.0465 27.63,-23.8932l0.015 -0.015 0.0461765 -0.0120588 0.00323529 0.0138235c0.573824,-0.149412 1.14235,-0.28 1.67324,-0.384412 0.448824,-0.0882353 1.12971,-0.206176 2.02412,-0.347353 3.76412,-0.594706 9.01676,-1.09147 12.9403,-0.801765 2.07912,0.147647 3.64471,1.95529 3.49706,4.03441 -0.147647,2.07912 -1.95559,3.645 -4.03441,3.49735 -3.37059,-0.249706 -7.94,0.187059 -11.2285,0.706471 -0.482941,0.0764706 -1.08059,0.185588 -1.75824,0.318529 -0.593235,0.116471 -1.01206,0.206765 -1.23353,0.264118l0 0.015 -0.0458824 0.0120588 -0.00235294 -0.0108824c-11.7115,3.10059 -17.4074,11.8371 -23.1935,20.7162 -6.22029,9.54382 -12.5376,19.2359 -25.9088,24.0656 -3.20853,1.16 -6.86441,2.09206 -10.9097,2.86235 -3.92676,0.748529 -8.22559,1.33971 -12.8438,1.84z"/>
    <path id="_149940224" class="fil0" d="M282.431 57.3418c19.8626,-3.19088 56.5544,-0.351765 70.8503,3.96118 16.7926,5.06676 23.5829,21.1403 29.9853,37.7635 2.03235,5.28941 4.49118,11.3276 5.73824,17.0012"/>
    <path id="_149940296" class="fil2" d="M282.989 61.075c-2.06176,0.307647 -3.98412,-1.11353 -4.29176,-3.175 -0.307647,-2.06147 1.11353,-3.98382 3.175,-4.29147l0.0429412 -0.00676471 0.000882353 0.0108824c2.945,-0.469118 6.16265,-0.812647 9.54118,-1.03647 3.325,-0.220588 6.96735,-0.338529 10.7968,-0.362353 19.1782,-0.119118 41.5229,2.28912 52.1082,5.48353 9.34559,2.81912 15.8665,8.64088 20.9162,16.0326 4.85382,7.10647 8.23941,15.485 11.5121,23.9815l-0.0129412 0.00558824 0.00852941 0.0223529 0.015 0 0.694706 1.79794c1.91765,4.95441 4.03088,10.4121 5.19735,15.7215 0.445882,2.03647 -0.843235,4.05176 -2.87971,4.49765 -2.03647,0.445588 -4.05147,-0.843235 -4.49735,-2.87971 -1.04382,-4.75059 -3.04882,-9.92882 -4.86794,-14.63l-0.694706 -1.79765 0.0126471 -0.00558824 -0.00852941 -0.0223529 -0.015 0c-3.12882,-8.12441 -6.34265,-16.0994 -10.6797,-22.45 -4.14353,-6.06382 -9.41706,-10.8171 -16.8632,-13.0626 -9.97941,-3.01118 -31.3829,-5.28059 -49.9218,-5.16471 -3.50765,0.0217647 -6.98294,0.139118 -10.3253,0.360588 -3.27676,0.217353 -6.28118,0.532353 -8.89206,0.948824l-0.0288235 0.015 -0.0426471 0.00676471z"/>
    <path id="_149940368" class="fil0" d="M195.289 158.491c30.4912,0.0794118 61.1691,0.375 91.5888,-0.486176"/>
    <path id="_149940440" class="fil2" d="M195.286 162.256c-2.07853,-0.000882353 -3.76294,-1.68941 -3.76206,-3.76794 0.000882353,-2.07853 1.68941,-3.76294 3.76794,-3.76206l1.10912 0.00294118 13.2624 0.0455882c25.7029,0.0947059 51.4926,0.190294 77.1135,-0.534118 2.07853,-0.055 3.81088,1.58529 3.86559,3.66382 0.055,2.07824 -1.58529,3.81059 -3.66382,3.86559 -25.6659,0.725588 -51.5371,0.630294 -77.3215,0.534706l-13.2621 -0.0455882 -1.10912 -0.00294118z"/>
    <path id="_149940512" class="fil0" d="M194.642 108.148c-30.4876,-3.33265 -72.1715,13.1471 -70.8226,49.1065 6.87118,1.04 13.9591,0.162353 20.9121,0.327647 3.16235,28.0679 46.2032,29.2206 50.5574,0.909118"/>
    <path id="_149940584" class="fil2" d="M195.043 104.397c2.07088,0.221765 3.57147,2.08235 3.34971,4.15294 -0.221471,2.07088 -2.08206,3.57147 -4.15294,3.34971 -3.34941,-0.366471 -6.82,-0.482941 -10.3318,-0.351765 -12.7068,0.475588 -26.1921,4.13912 -36.8321,10.9626 -10.3182,6.61676 -17.9129,16.2421 -19.2871,28.8176 -0.0917647,0.839118 -0.158529,1.69118 -0.196471,2.54941 3.14529,0.212941 6.40441,0.117941 9.65794,0.025 2.51,-0.0732353 5.02353,-0.145588 7.55853,-0.085l3.30265 0.0794118 0.369118 3.27529c0.855882,7.59588 5.16265,12.8471 10.7344,15.6826 3.19706,1.62588 6.81706,2.48529 10.4612,2.56059 3.64088,0.075 7.28676,-0.630882 10.5403,-2.12941 5.66706,-2.61206 10.1744,-7.70706 11.35,-15.3576 0.310588,-2.055 2.23029,-3.46882 4.28529,-3.15824 2.055,0.310588 3.46882,2.23029 3.15824,4.28529 -1.60912,10.4729 -7.82147,17.4676 -15.6409,21.0712 -4.30412,1.98206 -9.09353,2.91765 -13.8468,2.81912 -4.74676,-0.0982353 -9.49059,-1.23059 -13.7103,-3.37735 -6.85118,-3.48706 -12.3197,-9.58735 -14.2706,-18.2297 -1.35647,0.0158824 -2.72235,0.0535294 -4.08941,0.0932353 -4.69765,0.133824 -9.40294,0.27 -14.1956,-0.455l-3.08412 -0.465882 -0.117059 -3.12618c-0.0891176,-2.38588 -0.00735294,-4.67471 0.230882,-6.86 1.65206,-15.1221 10.5953,-26.5732 22.7238,-34.3509 11.8056,-7.57176 26.6803,-11.6318 40.6382,-12.1553 3.91441,-0.146471 7.74412,-0.0202941 11.3947,0.378235z"/>
   </g>
   <path id="_149940680" class="fil2" d="M432.992 249.988l15.5376 0 -0.331176 4.73853c0,8.15471 -1.68941,14.4735 -5.06794,18.955 -3.89412,5.14265 -9.88147,7.71441 -17.9635,7.71441 -8.00794,0 -14.0694,-1.65412 -18.1826,-4.96 -3.67353,-2.93882 -6.13471,-7.42029 -7.38441,-13.4441 -0.955,-4.55559 -1.43206,-11.1306 -1.43206,-19.7265l0 -11.7921c0,-12.4882 1.39559,-21.2312 4.18765,-26.2274 3.89324,-6.97882 11.4979,-10.4688 22.8115,-10.4688 6.98029,0 12.4897,1.83618 16.5306,5.51 4.03971,3.67382 6.06,8.96324 6.06,15.8694 0.293824,2.13088 0.440882,4.22441 0.440882,6.28l-15.2618 0c-0.808235,-6.31735 -1.21235,-9.51265 -1.21235,-9.58676 -1.02794,-3.74618 -3.19529,-5.62 -6.52059,-5.62 -4.64618,0 -7.80618,2.13118 -9.51412,6.39206 -1.10147,2.71794 -1.65265,6.61206 -1.65265,11.6797l0 2.75588 0 22.9218c0,5.06912 0.514412,8.89029 1.54206,11.4618 1.76353,4.33441 4.96,6.50176 9.58794,6.50176 3.60059,0 5.95118,-2.49853 7.05294,-7.49441 0.514706,-2.35059 0.772059,-6.17088 0.772059,-11.4603zm-83.97 31.3876l-17.3159 0 20.6638 -86.5782 21.8185 0 19.6232 86.5782 -17.3147 0 -4.27118 -21.9341 -18.9315 0 -4.27235 21.9341zm11.6603 -59.2212l-4.84941 24.5894 13.8532 0 -4.38676 -24.5894c-0.307647,-1.53735 -0.557647,-3.01882 -0.750588,-4.44265 -0.192059,-1.42353 -0.48,-3.94471 -0.865294,-7.56147l-0.577059 -5.77206 -0.808529 5.77206c-0.307647,2.69382 -0.557353,4.90618 -0.750588,6.63765 -0.192059,1.73118 -0.481176,3.52059 -0.865,5.36647zm-37.3088 29.7835l-27.475 0 0 -13.275 27.475 0 0 13.275zm-65.9071 -14.0297l0 21.2703c0,3.54588 0.150588,5.84559 0.452353,6.90206 0.829706,2.86559 3.28147,4.29941 7.35441,4.29941 3.16794,0 5.24235,-0.867059 6.22294,-2.60235 0.753529,-1.35794 1.13118,-4.22353 1.13118,-8.59912l0 -21.2703c0,-5.05324 -0.565882,-8.33471 -1.69706,-9.84353 -1.13118,-1.50765 -3.01706,-2.26235 -5.65706,-2.26235 -3.46971,0 -5.73235,1.24471 -6.78882,3.73382 -0.679118,1.58353 -1.01794,4.37441 -1.01794,8.37206zm7.80676 43.7853c-9.20206,0 -15.3491,-2.45059 -18.4424,-7.35412 -2.715,-4.29941 -4.07265,-12.2941 -4.07265,-23.9853 0,-8.97618 0.301471,-15.3112 0.905588,-19.0076 0.904706,-5.73235 2.86559,-9.88088 5.88294,-12.4447 3.39382,-2.94176 8.63618,-4.41206 15.7265,-4.41206 6.93912,0 12.0682,1.47029 15.3871,4.41206 2.94147,2.56382 4.86529,6.71235 5.76971,12.4447 0.604118,3.77147 0.905588,10.1074 0.905588,19.0076 0,11.8421 -1.28206,19.8365 -3.84706,23.9853 -3.01735,4.90353 -9.08853,7.35412 -18.2153,7.35412zm-71.0324 -67.2035l44.3259 0 0 11.9141 -14.4174 0 0 55.2897 -15.4909 0 0 -55.2897 -14.4176 0 0 -11.9141zm-50.2109 67.2035l0 -67.2038 21.9241 0c6.91206,0 12.2735,1.31118 16.0865,3.93235 4.29029,2.93824 6.43441,7.34676 6.43441,13.2253 0,3.415 -0.873824,6.49412 -2.62147,9.23471 -1.74794,2.74 -4.09147,4.50794 -7.03029,5.30176 3.17765,0.795 5.79971,2.70147 7.86471,5.72059 2.06529,3.01794 3.09794,6.51324 3.09794,10.4853 0,6.91059 -2.14412,11.9162 -6.43471,15.0141 -3.97147,2.85912 -9.81059,4.28971 -17.515,4.28971l-21.8062 0zm15.4897 -55.7662l0 15.2521 2.97971 0c3.97176,0 6.59324,-0.396471 7.86441,-1.19118 1.74647,-1.11147 2.62088,-3.49559 2.62088,-7.14971 0,-2.93941 -0.833235,-4.825 -2.50265,-5.65971 -1.66765,-0.834706 -4.36794,-1.25147 -8.10206,-1.25147l-2.86029 0zm0 26.5726l0 17.7544 3.33676 0c4.21059,0 7.11,-0.556471 8.69912,-1.66912 1.90647,-1.35 2.85912,-3.85235 2.85912,-7.50647 0,-3.81294 -1.03265,-6.27618 -3.09794,-7.38735 -1.43029,-0.795 -4.36912,-1.19147 -8.81735,-1.19147l-2.97971 0zm-64.2635 28.8756l-17.3147 0 20.6629 -86.5782 21.8182 0 19.6244 86.5782 -17.3159 0 -4.27118 -21.9341 -18.9318 0 -4.27206 21.9341zm11.6603 -59.2212l-4.84941 24.5894 13.8532 0 -4.38676 -24.5894c-0.307647,-1.53735 -0.557647,-3.01882 -0.750588,-4.44265 -0.192059,-1.42353 -0.48,-3.94471 -0.865,-7.56147l-0.577353 -5.77206 -0.808529 5.77206c-0.307647,2.69382 -0.557353,4.90618 -0.750588,6.63765 -0.192059,1.73118 -0.480882,3.52059 -0.865,5.36647z"/>
   <path id="_149940752" class="fil1" d="M237.574 376c0.828235,0 1.5,0.671765 1.5,1.50029 0,0.828235 -0.671765,1.49971 -1.5,1.49971 -0.828235,0 -1.5,-0.671471 -1.5,-1.49971 0,-0.828529 0.671765,-1.50029 1.5,-1.50029z"/>
   <path id="_149940824" class="fil1" d="M271.015 389.971c0.828235,0 1.5,0.671765 1.5,1.50029 0,0.828235 -0.671765,1.49971 -1.5,1.49971 -0.828235,0 -1.5,-0.671471 -1.5,-1.49971 0,-0.828529 0.671765,-1.50029 1.5,-1.50029z"/>
   <path id="_149940896" class="fil0 str2" d="M253.801 394.338c-3.62529,0.461765 -7.24471,0.958529 -10.8465,1.51882 -1.55382,-6.18294 -3.76706,-12.2397 -5.36147,-18.4174m16.2079 16.8985c-0.911471,-1.21118 -1.55471,-2.65235 -1.82618,-4.24941 -0.907941,-5.34206 2.68794,-10.4103 8.03,-11.3182 5.34176,-0.907941 10.4103,2.68824 11.3179,8.03 0.277941,1.63412 0.133824,3.24294 -0.352353,4.71471m34.0874 -18.5976c0.681765,4.01235 1.36382,8.025 2.04559,12.0376 -6.14735,0.478824 -12.2738,1.04059 -18.3094,2.13706 -6.01382,1.09235 -11.9156,2.76706 -17.8235,4.42294m34.0885 -18.5897c-1.32647,1.17853 -2.98853,2.01206 -4.86647,2.33118 -5.34176,0.907647 -10.41,-2.68824 -11.3179,-8.03 -0.907941,-5.34206 2.68794,-10.4103 8.03,-11.3182 1.87765,-0.319118 3.72176,-0.0817647 5.36324,0.592353m-14.1829 -19.2015c3.51941,-0.695 7.04265,-1.37 10.5803,-1.99676 0.599706,3.52882 1.19941,7.05765 1.79912,10.5862 0.600588,3.53412 1.20118,7.06794 1.80176,10.6018m-31.5376 -16.1718c-0.864412,-1.18618 -1.475,-2.585 -1.73765,-4.13 -0.907941,-5.34206 2.68794,-10.4103 8.03,-11.3182 5.34176,-0.907647 10.4103,2.68824 11.3179,8.03 0.258235,1.51824 0.152353,3.01412 -0.253824,4.39882m-52.8735 22.6829c-0.206176,-4.59853 -0.277647,-9.21559 -0.695,-13.7779 5.95588,-1.40529 11.9371,-2.74118 17.9738,-3.70941 6.03147,-0.967647 12.1441,-1.56088 18.2406,-2.17794m-33.0982 37.1126c-1.21353,0.825 -2.63176,1.38971 -4.18471,1.60147 -5.36853,0.732353 -10.3168,-3.02735 -11.0491,-8.39618 -0.732353,-5.36882 3.02735,-10.3168 8.39618,-11.0491 1.52559,-0.208235 3.01735,-0.0535294 4.38794,0.397647"/>
   <path id="_149940968" class="fil1" d="M235.176 358.456c0.828235,0 1.5,0.671765 1.5,1.50029 0,0.828235 -0.671765,1.49971 -1.5,1.49971 -0.828235,0 -1.5,-0.671471 -1.5,-1.49971 0,-0.828529 0.671765,-1.50029 1.5,-1.50029z"/>
   <path id="_149941040" class="fil1" d="M302.226 354.949c0.828235,0 1.5,0.671765 1.5,1.50029 0,0.828235 -0.671765,1.49971 -1.5,1.49971 -0.828235,0 -1.5,-0.671471 -1.5,-1.49971 0,-0.828529 0.671765,-1.50029 1.5,-1.50029z"/>
   <path id="_149941112" class="fil1" d="M270.668 338.794c0.828235,0 1.5,0.671765 1.5,1.50029 0,0.828235 -0.671765,1.49971 -1.5,1.49971 -0.828235,0 -1.5,-0.671471 -1.5,-1.49971 0,-0.828529 0.671765,-1.50029 1.5,-1.50029z"/>
   <path id="_149941184" class="fil1" d="M288.126 335.765c0.828235,0 1.5,0.671765 1.5,1.50029 0,0.828235 -0.671765,1.49971 -1.5,1.49971 -0.828235,0 -1.5,-0.671471 -1.5,-1.49971 0,-0.828529 0.671765,-1.50029 1.5,-1.50029z"/>
   <path id="_149941256" class="fil1" d="M305.035 371.485c0.828235,0 1.5,0.671765 1.5,1.50029 0,0.828235 -0.671765,1.49971 -1.5,1.49971 -0.828235,0 -1.5,-0.671471 -1.5,-1.49971 0,-0.828529 0.671765,-1.50029 1.5,-1.50029z"/>
   <path id="_149941328" class="fil1" d="M253.735 392.809c0.828235,0 1.5,0.671765 1.5,1.50029 0,0.828235 -0.671765,1.49971 -1.5,1.49971 -0.828235,0 -1.5,-0.671471 -1.5,-1.49971 0,-0.828529 0.671765,-1.50029 1.5,-1.50029z"/>
  </g>
  <path class="fil1 str1" d="M44.1482 238.541c4.06029,0 7.35294,3.29294 7.35294,7.35294 0,4.06029 -3.29265,7.35294 -7.35294,7.35294 -4.06029,0 -7.35294,-3.29265 -7.35294,-7.35294 0,-4.06 3.29265,-7.35294 7.35294,-7.35294z"/>
 </g>
</svg>
