<?xml version="1.0" encoding="UTF-8" standalone="no"?>
<svg
   xmlns:dc="http://purl.org/dc/elements/1.1/"
   xmlns:cc="http://creativecommons.org/ns#"
   xmlns:rdf="http://www.w3.org/1999/02/22-rdf-syntax-ns#"
   xmlns:svg="http://www.w3.org/2000/svg"
   xmlns="http://www.w3.org/2000/svg"
   viewBox="0 0 1559.9999 720"
   id="svg22"
   height="720"
   width="1559.9999"
   version="1.1">
  <metadata
     id="metadata28">
    <rdf:RDF>
      <cc:Work
         rdf:about="">
        <dc:format>image/svg+xml</dc:format>
        <dc:type
           rdf:resource="http://purl.org/dc/dcmitype/StillImage" />
      </cc:Work>
    </rdf:RDF>
  </metadata>
  <defs
     id="defs26" />
  <path
     id="path2"
     style="fill:none;stroke:#334b88;stroke-width:8.50389957;stroke-linecap:butt;stroke-linejoin:miter;stroke-dasharray:none"
     d="m 908.8391,583.7734 c -131.5661,3.6961 -264.1765,3.2077 -396.343,2.7173 l -58.138,-0.1995 c -11.7229,44.7542 -41.0553,75.2553 -76.9958,91.8176 -22.1252,10.1882 -46.7464,14.9981 -71.1805,14.4921 -24.4012,-0.506 -48.7862,-6.3272 -70.478,-17.3617 -35.2191,-17.9257 -63.3317,-49.2857 -73.3598,-93.7125 -6.9727,0.0828 -13.9944,0.2758 -21.0217,0.4799 -24.1495,0.6885 -48.3376,1.3879 -72.9749,-2.3394 l -15.8536,-2.395 -0.6018,-16.0696 c -0.4578,-12.2647 -0.0383,-24.0304 1.1874,-35.265 8.4929,-77.7365 54.4661,-136.6016 116.8135,-176.5834 60.6875,-38.9242 137.1521,-59.7946 208.9046,-62.4855 19.4035,-0.7257 38.4013,-0.1488 56.5594,1.7308 21.8339,-2.4026 42.1733,-5.2293 60.7507,-8.7692 18.561,-3.5346 35.3736,-7.829 50.1727,-13.1749 56.4999,-20.4103 85.3792,-64.7079 113.8037,-108.3158 33.8504,-51.9417 67.164,-103.0501 142.0347,-122.8249 l 0.0768,-0.0774 0.2364,-0.0612 0.017,0.0714 c 2.9498,-0.7696 5.8723,-1.4397 8.6023,-1.9771 2.3063,-0.4536 5.8074,-1.0596 10.404,-1.7847 18.7243,-2.9591 44.6137,-5.4457 64.5432,-4.2546 14.578,-2.2473 30.4107,-3.9072 46.9987,-5.0071 17.0926,-1.1341 35.8172,-1.739 55.5018,-1.8623 98.5876,-0.6117 213.4537,11.7669 267.8681,28.1885 48.041,14.4922 81.5632,44.4192 107.5215,82.4174 24.9511,36.5309 42.3555,79.6013 59.1778,123.2795 l -0.066,0.0278 0.044,0.1157 0.077,-3e-4 3.5711,9.2418 c 9.4898,24.52 19.9105,51.4363 26.0254,77.7628 11.8911,20.215 22.5088,41.5653 32.1736,63.277 10.1352,22.7591 19.1471,45.593 27.4852,67.862 l 5.9162,15.8051 -14.9445,8.0504 c -21.7295,11.7017 -44.9206,17.5368 -68.1616,23.3886 -12.7678,3.2134 -25.5742,6.4486 -37.5457,10.5736 1.2169,3.4166 2.2861,7.0812 2.5446,12.1807 h 0.01 c 3.7519,71.2369 -32.0219,115.8979 -80.1207,136.9094 -19.6795,8.5887 -41.3824,13.0641 -63.1531,13.6129 -21.6218,0.5479 -43.4321,-2.7641 -63.4422,-9.6897 -44.9382,-15.554 -81.2585,-48.9643 -88.7567,-98.0093 -32.2072,-0.9825 -57.8557,-0.5922 -83.0747,-0.1979 -33.9928,0.5256 -67.2539,1.0429 -112.8053,-1.5843 z" />
  <path
     id="path4"
     style="fill:none;stroke:#334b88;stroke-width:8.50389957;stroke-linecap:butt;stroke-linejoin:miter;stroke-dasharray:none"
     d="m 1419.5547,361.7062 c -4.1664,0.843 -6.4885,1.3184 -8.5555,1.7402 -52.7358,10.7762 -106.0937,21.681 -158.9984,26.1402 l -0.413,0.0346 -15.3791,1.2827 5.5443,-14.4207 c 7.5109,-19.5381 7.2722,-39.1394 1.512,-56.1955 -3.7199,-11.031 -9.7719,-21.0415 -17.5201,-29.3006 -7.6876,-8.1929 -17.055,-14.6624 -27.4499,-18.6553 -14.542,-5.5882 -31.2443,-6.4273 -48.4486,-0.6222 -4.506,1.5179 -8.8727,3.5421 -13.0178,5.9788 -14.5245,8.5448 -25.6564,22.1185 -31.6534,38.0166 -6.0131,15.9587 -6.8635,34.2584 -0.8141,52.1779 1.8017,5.3535 4.2256,10.6772 7.2879,15.8833 l 1.2792,2.1827 0.063,2.5223 0.025,1.0298 3e-4,0.0771 c 0.091,2.704 0.1726,5.7495 -1.6575,10.5086 l -2.1903,5.6911 -6.0239,0.5205 c -42.9488,3.7335 -86.7971,3.5594 -130.6066,3.3851 -17.9759,-0.0689 -35.9688,-0.1378 -53.8988,0.0646 l 0.4374,135.7509 c 40.917,2.0994 71.1437,1.6268 101.992,1.152 30.3905,-0.4717 61.4089,-0.9561 102.4478,0.8133 l 18.5969,0.8056 0.059,18.4895 c 0.1281,40.2614 28.1792,67.8101 63.9312,80.1825 15.7147,5.4411 32.885,8.0357 49.9303,7.6068 16.9078,-0.4286 33.6186,-3.8361 48.5898,-10.372 34.2,-14.9414 59.6143,-47.3147 56.8647,-99.5034 v -0.0717 c -0.018,-0.3799 -0.5344,-1.7442 -1.0511,-3.1195 -2.6941,-7.1405 -5.4715,-14.5066 -2.6711,-27.6296 l 2.0676,-9.6837 9.1244,-4.0113 c 18.5576,-8.1556 37.7311,-12.9864 56.8446,-17.7897 15.0627,-3.7877 30.0869,-7.5646 43.7791,-12.8461 -6.3757,-16.4976 -13.0595,-32.9609 -20.1549,-48.9055 -9.0677,-20.3712 -18.9431,-40.2735 -29.8729,-58.9099 z" />
  <path
     id="path6"
     style="fill:none;stroke:#334b88;stroke-width:8.50389957;stroke-linecap:butt;stroke-linejoin:miter;stroke-dasharray:none"
     d="m 918.7247,390.3888 c 17.9158,-0.2015 35.8787,-0.1326 53.8293,-0.0598 39.7778,0.1596 79.5833,0.3356 119.1915,-2.5832 -2.2946,-4.5091 -4.1873,-9.0856 -5.7274,-13.6576 -7.5677,-22.4147 -6.5115,-45.292 1.0037,-65.232 7.5425,-19.9953 21.5989,-37.0979 39.9606,-47.9021 5.1455,-3.0237 10.7223,-5.586 16.6589,-7.5878 21.7817,-7.3508 43.0234,-6.2563 61.5799,0.8776 13.2018,5.0749 25.0254,13.2106 34.6694,23.4904 9.5941,10.2249 17.0969,22.6488 21.7174,36.3484 5.6993,16.8798 7.0426,35.7231 2.6481,54.8603 47.7312,-4.9881 95.5681,-14.7846 142.8933,-24.453 l 5.9874,-1.2249 c -5.6999,-21.6524 -14.5471,-44.5045 -22.6741,-65.5041 l -3.5708,-9.2415 0.066,-0.0278 -0.044,-0.1157 -0.077,3e-4 c -16.0838,-41.764 -32.6058,-82.7609 -54.9006,-115.4061 -21.299,-31.1723 -48.4092,-55.6066 -86.6866,-67.1502 -51.2994,-15.4786 -161.3273,-27.1457 -256.627,-26.5501 -18.032,0.1128 -35.8974,0.7149 -53.0782,1.8547 -13.6029,0.9017 -26.2919,2.1314 -37.7401,3.6986 0.7302,10.9497 1.1999,21.9646 1.6653,32.9661 1.1078,26.1751 2.2102,52.3667 6.8703,76.7129 3.3381,-1.6466 6.2513,-3.5008 9.0601,-5.2889 4.9414,-3.1496 9.707,-6.1996 16.2817,-8.4679 30.441,-10.5234 57.6207,-5.7135 78.6761,7.8236 13.2846,8.5388 24.0577,20.5722 31.5814,34.3837 7.4738,13.7236 11.7864,29.3136 12.2278,45.0754 0.739,26.2644 -9.2222,52.9262 -33.042,72.3455 l -0.077,0.0774 -1.3076,1.0452 -0.071,0.0773 c -4.4448,3.4787 -9.1443,6.501 -14.0658,9.0502 -4.8334,2.505 -9.8884,4.5369 -15.1161,6.0846 l 0.006,0.011 c -22.5496,6.687 -47.7065,4.1287 -74.5951,-6.1401 -1.203,11.4214 -0.0292,23.6781 1.1279,35.9459 0.7554,7.9526 1.5083,15.9242 1.6991,23.8637 z" />
  <path
     id="path8"
     style="fill:none;stroke:#334b88;stroke-width:8.50389957;stroke-linecap:butt;stroke-linejoin:miter;stroke-dasharray:none"
     d="m 480.8031,411.1146 3.2091,77.745 c -30.4665,-0.8187 -66.293,-1.4066 -95.6151,3.3965 l -0.6945,0.1133 -10.4979,1.7127 2.6771,10.2915 c 4.5487,17.4963 6.148,34.1348 3.6433,49.2072 -2.4202,14.5772 -8.7635,27.8858 -20.1296,39.3386 -16.3831,16.5152 -36.3028,22.7418 -55.4927,21.276 -13.3753,-1.0173 -26.4524,-5.7353 -37.8017,-13.2675 -11.3993,-7.5657 -21.0819,-17.9842 -27.6186,-30.3591 -9.9969,-18.9346 -12.5926,-42.6209 -2.7025,-67.9473 l 4.8424,-12.4101 -13.3044,-0.786 c -28.4533,-1.6878 -57.2984,-1.5265 -86.1432,-1.3706 -18.0907,0.1001 -29.8939,0.1982 -43.7938,-0.1791 16.0324,-44.3943 48.5705,-79.7573 89.4132,-105.9489 54.6965,-35.0773 124.018,-53.909 189.3382,-56.3536 15.533,-0.5802 30.9098,-0.2182 45.8676,1.0942 -0.0283,5.6619 -0.1539,11.3445 -0.2769,17.0243 -0.4499,20.1739 -0.8935,40.375 2.7969,60.3525 0.6999,4.9167 5.0647,8.5654 10.1175,8.2941 l 0.6389,-0.0351 c 13.841,-0.743 27.6846,-1.0681 41.5267,-1.1886 z" />
  <path
     id="path10"
     style="fill:none;stroke:#334b88;stroke-width:8.50389957;stroke-linecap:butt;stroke-linejoin:miter;stroke-dasharray:none"
     d="m 95.6374,507.0589 c 16.5056,0.5788 28.8218,0.4668 49.6301,0.3506 24.1245,-0.127 48.2326,-0.2758 72.3481,0.7262 -6.9633,26.3934 -3.0104,51.0863 7.7638,71.4887 8.0643,15.2657 19.9919,28.0984 34.0512,37.4292 14.1029,9.3643 30.371,15.2212 47.0446,16.4917 24.5092,1.8737 49.8867,-6.0262 70.6904,-26.9997 14.3776,-14.4893 22.4065,-31.345 25.4727,-49.7974 2.454,-14.7696 1.6668,-30.4747 -1.5806,-46.7166 24.8443,-2.9943 50.982,-2.2885 77.0922,-1.5883 18.648,0.4947 6.4227,1.5517 24.7221,0.7673 l -2.7942,-98.153 c 6.8879,0.0119 13.775,0.0502 20.6606,0.0882 28.8448,0.1559 57.6899,0.3172 86.1432,-1.3706 l 13.3044,-0.786 -4.8424,-12.4101 c -9.8901,-25.3264 -7.2944,-49.0127 2.7026,-67.9473 6.5367,-12.3749 16.2192,-22.7934 27.6185,-30.359 11.3493,-7.5323 24.4264,-12.2502 37.8017,-13.2676 19.19,-1.4658 39.1096,4.7608 55.4927,21.276 11.3661,11.4528 17.7095,24.7615 20.1297,39.3386 2.5047,15.0724 0.9054,31.7109 -3.6434,49.2072 l -2.677,10.2915 10.4978,1.7127 0.6945,0.1134 c 29.3221,4.803 59.7997,3.9841 90.2662,3.1654 15.0859,-0.4036 30.1753,-0.8107 45.0583,-0.5029 l 0.4369,135.6823 c -128.6748,3.4481 -258.1478,2.9688 -387.1951,2.4926 l -68.1763,-0.2345 -5.7008,-0.0147 c -9.8311,-0.004 -17.964,7.325 -19.205,16.8191 -6.1282,39.1297 -29.2447,65.2053 -58.2882,78.5917 -16.7247,7.7037 -35.4674,11.3323 -54.184,10.9459 -18.7333,-0.3863 -37.3416,-4.805 -53.7761,-13.1629 -28.6429,-14.5758 -50.7823,-41.5707 -55.1809,-80.6179 l -1.8986,-16.8367 -16.9764,-0.4087 c -13.0326,-0.311 -25.9526,0.0606 -38.8562,0.4379 -16.7256,0.4774 -33.4789,0.9661 -49.6477,-0.1281 0.1953,-4.4124 0.5394,-8.7922 1.0103,-13.1063 0.8628,-7.8962 2.2059,-15.5647 3.9903,-23.0079 z" />
  <path
     id="path12"
     style="fill:none;stroke:#334b88;stroke-width:8.50389957;stroke-linecap:butt;stroke-linejoin:miter;stroke-dasharray:none"
     d="m 445.3675,326.4735 c -0.0304,5.8601 -0.1616,11.7354 -0.2886,17.6083 -0.3637,16.3873 -0.7268,32.7945 1.2529,48.484 24.6904,-1.0482 49.6083,-0.9139 74.4993,-0.7747 24.1246,0.127 48.2327,0.2758 72.3481,-0.7262 -6.9633,-26.3934 -3.0104,-51.0863 7.7638,-71.4886 8.0643,-15.2657 19.9919,-28.0985 34.0512,-37.4293 14.1029,-9.3642 30.371,-15.2212 47.0447,-16.4917 24.5091,-1.8737 49.8866,6.0262 70.6903,26.9998 14.3777,14.4892 22.4065,31.3449 25.4727,49.7973 2.454,14.7696 1.6668,30.4747 -1.5806,46.7167 24.8443,2.9942 50.982,2.2884 77.0922,1.5882 15.2699,-0.405 30.547,-0.8172 45.6282,-0.5227 -0.1928,-7.198 -0.8901,-14.5593 -1.5877,-21.9078 -1.7156,-18.1205 -3.42,-36.2302 1.4972,-53.8764 l 3.0331,-10.8876 10.3034,4.6598 c 26.9112,12.18 51.4392,16.1334 72.3821,9.9202 l 0.0385,-3e-4 c 3.951,-1.1693 7.8565,-2.7459 11.6615,-4.7188 3.7338,-1.9341 7.4216,-4.3198 11.0313,-7.1456 l 0.011,0.011 1.2252,-0.9788 0.01,0.0108 c 18.6503,-15.2444 26.4544,-36.1712 25.8707,-56.7797 -0.3486,-12.6337 -3.8531,-25.2079 -9.9195,-36.3472 -6.0169,-11.0407 -14.5568,-20.6246 -25.0376,-27.3546 -16.3199,-10.4899 -37.6577,-14.1287 -61.8931,-5.7512 -4.4288,1.5287 -8.2434,3.9645 -12.1901,6.4831 -6.4474,4.1074 -13.2194,8.4359 -24.0936,11.2521 l -9.4876,2.4647 -2.3329,-9.5981 c -7.1158,-29.2405 -8.4317,-60.1625 -9.7418,-91.0791 -0.4587,-10.9205 -0.9241,-21.8548 -1.6478,-32.6517 -16.3375,-0.3949 -36.1792,1.6163 -50.9771,3.9532 -2.4826,0.3934 -5.5542,0.9541 -9.0386,1.637 -3.0495,0.5992 -5.2016,1.0633 -6.3405,1.3586 v 0.0771 l -0.2364,0.0615 -0.0114,-0.0552 c -60.2045,15.9389 -89.4838,60.849 -119.2291,106.4933 -31.9763,49.061 -64.4511,98.8833 -133.1864,123.7114 -16.4934,5.9623 -35.2871,10.7535 -56.0829,14.7137 -17.8923,3.4113 -37.2889,6.1867 -57.9997,8.5635 z" />
  <path
     id="path14"
     style="fill:#fffefe;fill-rule:evenodd"
     d="m 435.9588,620.1466 c 152.8908,0.4907 306.5639,1.6763 459.0069,-2.6378 -152.443,4.3141 -306.1161,3.1285 -459.0069,2.6378 z" />
  <path
     id="path16"
     style="fill:#334b88;fill-rule:evenodd"
     d="m 309.7127,439.4446 c -14.5001,0 -28.0004,2.7 -40.5003,8.2001 -12.5002,5.5001 -23.3002,12.8001 -32.5004,22.1003 -9.2001,9.3002 -16.5001,20.2003 -21.8001,32.7002 -5.4,12.5002 -8.1003,25.8004 -8.1003,39.8004 0,14.1001 2.7003,27.4003 8.1003,39.9002 5.3,12.5002 12.6,23.4003 21.8001,32.7005 9.2002,9.2999 20.0002,16.5999 32.5004,22.1 12.4999,5.5001 26.0002,8.2001 40.5003,8.2001 14.2001,0 27.6001,-2.7 40.1003,-8.2001 12.4999,-5.5001 23.4,-12.8999 32.7002,-22.3002 9.2001,-9.3999 16.6002,-20.2002 21.9002,-32.6001 5.4,-12.5002 8.1,-25.7003 8.1,-39.8004 0,-14 -2.7,-27.2001 -8.1,-39.7003 -5.3,-12.4002 -12.7001,-23.2002 -21.9002,-32.6002 -9.3002,-9.4002 -20.2003,-16.8003 -32.7002,-22.3004 -12.5002,-5.5001 -25.9002,-8.2001 -40.1003,-8.2001 z m 102.8007,236.4021 v -5.8 c -14.7002,11.7 -30.6003,20.7 -47.8004,26.9003 -17.2,6.3 -35.5002,9.3999 -55.0003,9.3999 -45.4006,0 -84.0008,-16.0001 -116.1012,-48.0004 -32,-32.1001 -48.0001,-70.7006 -48.0001,-116.1009 0,-45.3005 16.0001,-83.9007 48.0001,-116.0011 32.1004,-32 70.7006,-48.0002 116.1012,-48.0002 44.9002,0 83.5007,16.0002 116.0008,48.0002 32.0003,32.1004 48.0004,70.7006 48.0004,116.0011 v 133.6011 c 0,8.3999 -2.9999,15.6002 -8.8999,21.6003 -6.0001,5.9 -13.2004,8.8999 -21.6003,8.8999 -8.5,0 -15.8,-2.9999 -21.8001,-8.8999 -5.9,-6.0001 -8.9002,-13.2004 -8.9002,-21.6003 z" />
  <path
     id="path18"
     style="fill:#334b87;fill-rule:evenodd"
     d="m 549.3485,640.2824 c 1.5738,0 3.0807,-0.3013 4.5542,-0.9374 1.4731,-0.603 2.7456,-1.4735 3.8843,-2.545 1.1049,-1.0715 1.9754,-2.3439 2.6453,-3.8174 0.6361,-1.4734 0.9711,-3.1141 0.9711,-4.8555 0,-1.6406 -0.335,-3.2144 -0.9711,-4.6879 -0.6699,-1.4734 -1.5404,-2.7459 -2.6119,-3.8174 -1.0715,-1.0715 -2.3439,-1.942 -3.8174,-2.6118 -1.4734,-0.6361 -3.0472,-0.9712 -4.6545,-0.9712 h -27.0898 v 24.2436 z m 7.4673,44.6363 c 1.6073,0 3.1811,-0.3013 4.6545,-0.9377 1.4732,-0.6026 2.7457,-1.4734 3.8174,-2.6118 1.0715,-1.105 1.942,-2.3775 2.6119,-3.8175 0.6361,-1.4397 0.9708,-3.0135 0.9708,-4.7213 0,-1.6742 -0.3347,-3.2817 -0.9708,-4.7886 -0.6699,-1.5066 -1.5404,-2.8125 -2.6456,-3.8843 -1.1384,-1.0715 -2.4109,-1.942 -3.8843,-2.5447 -1.4732,-0.6364 -3.0135,-0.9377 -4.5539,-0.9377 h -34.5571 v 24.2436 z m -7.4673,-89.373 c 4.4201,0 8.6392,0.8706 12.5907,2.6119 3.9512,1.7078 7.4001,4.0518 10.347,6.9984 2.9466,2.9469 5.2906,6.3958 6.9984,10.3471 1.7411,3.9515 2.6119,8.1705 2.6119,12.624 0,6.9985 -1.8751,13.1264 -5.5922,18.417 2.143,1.9758 4.0518,3.9178 5.6925,5.8935 1.6407,1.9758 2.9804,3.985 4.0853,6.0945 1.0715,2.0761 1.8751,4.286 2.4443,6.5965 0.5695,2.344 0.8374,4.8889 0.8374,7.7018 0,4.4535 -0.8374,8.6728 -2.5449,12.6241 -1.7079,3.9512 -4.0184,7.4001 -6.9651,10.347 -2.9469,2.9466 -6.3958,5.2906 -10.347,6.9984 -3.9512,1.7414 -8.204,2.6119 -12.7244,2.6119 h -44.7032 c -1.44,0 -2.7794,-0.2679 -4.0184,-0.7702 -1.2725,-0.5357 -2.344,-1.2725 -3.248,-2.2102 -0.9042,-0.9708 -1.6409,-2.0423 -2.1767,-3.2814 -0.5023,-1.2724 -0.7702,-2.5783 -0.7702,-3.9512 V 605.759 c 0,-1.3731 0.2679,-2.6791 0.7702,-3.9515 0.5358,-1.2388 1.2725,-2.3106 2.1767,-3.2814 0.904,-0.9377 1.9755,-1.6744 3.248,-2.2102 1.239,-0.5023 2.5784,-0.7702 4.0184,-0.7702 z m 209.9208,99.5525 c 0,2.8797 -1.0046,5.3243 -2.98,7.3332 -2.0092,1.9758 -4.4201,2.9804 -7.1995,2.9804 -2.8797,0 -5.3243,-1.0046 -7.2663,-2.9804 -1.9757,-2.0089 -2.9469,-4.4535 -2.9469,-7.3332 v -55.8204 c 0,-3.1141 -0.6026,-6.0942 -1.8082,-8.907 -1.2053,-2.8128 -2.8797,-5.2909 -4.9558,-7.4004 -2.1096,-2.143 -4.5542,-3.8175 -7.4004,-5.0562 -2.8463,-1.239 -5.9267,-1.8754 -9.1749,-1.8754 -3.2145,0 -6.2283,0.6364 -9.0411,1.8754 -2.8128,1.2387 -5.2906,2.9132 -7.4004,4.9893 -2.143,2.1095 -3.8172,4.5541 -5.0227,7.3666 -1.2056,2.8129 -1.8083,5.8267 -1.8083,9.0077 v 55.8204 c 0,2.8797 -1.0046,5.3243 -2.9803,7.3332 -2.0089,1.9758 -4.4201,2.9804 -7.2326,2.9804 -2.8466,0 -5.2909,-1.0046 -7.3001,-2.9804 -1.9754,-2.0089 -2.98,-4.4535 -2.98,-7.3332 v -55.8204 c 0,-3.181 -0.6364,-6.1948 -1.8752,-9.0077 -1.239,-2.8125 -2.9134,-5.2571 -4.9895,-7.3666 -2.1095,-2.0761 -4.5539,-3.7506 -7.3667,-4.9893 -2.8128,-1.239 -5.8266,-1.8754 -9.0076,-1.8754 -3.2148,0 -6.2283,0.6029 -9.0411,1.8082 -2.8128,1.2056 -5.2909,2.88 -7.4004,5.023 -2.143,2.1096 -3.8172,4.5876 -5.0227,7.4001 -1.2056,2.8129 -1.8083,5.8267 -1.8083,9.0077 v 55.8204 c 0,2.8797 -1.0046,5.3243 -2.9803,7.3332 -2.0089,1.9758 -4.4201,2.9804 -7.2329,2.9804 -2.8463,0 -5.2906,-1.0046 -7.2998,-2.9804 -1.9754,-2.0089 -2.98,-4.4535 -2.98,-7.3332 V 605.759 c 0,-2.8129 1.0046,-5.224 2.98,-7.2329 2.0092,-1.9758 4.4201,-2.9804 7.2329,-2.9804 2.2771,0 4.2863,0.6364 6.061,1.9089 1.7745,1.2722 2.9801,2.9466 3.6165,5.0561 6.9984,-4.6544 14.9678,-6.965 23.8416,-6.965 6.5631,0 12.691,1.306 18.4504,3.8843 5.7595,2.5784 10.7825,6.4962 15.1022,11.7199 9.108,-10.4139 20.2586,-15.6042 33.4519,-15.6042 5.9604,0 11.6195,1.1722 16.9436,3.4827 5.3243,2.3105 9.9788,5.4581 13.93,9.4093 3.9515,3.9512 7.0991,8.6057 9.4096,13.93 2.3105,5.324 3.4823,10.9831 3.4823,16.9435 z m 127.4125,-44.6363 c 0,15.3031 -5.3577,28.262 -16.073,38.8769 -10.8827,10.7152 -23.8082,16.073 -38.8431,16.073 -15.2025,0 -28.1279,-5.3578 -38.8769,-16.073 -10.7152,-10.749 -16.073,-23.6744 -16.073,-38.8769 0,-15.1688 5.3578,-28.0942 16.073,-38.8432 10.749,-10.7152 23.6744,-16.073 38.8769,-16.073 15.0349,0 27.9604,5.3578 38.8431,16.073 5.3578,5.3913 9.3425,11.2848 11.9878,17.7809 2.679,6.4627 4.0183,13.4946 4.0852,21.0623 z m -54.9161,-34.4231 c -4.8555,0 -9.3759,0.9043 -13.5618,2.7459 -4.1856,1.8417 -7.8021,4.2863 -10.8828,7.4004 -3.0807,3.1142 -5.525,6.7641 -7.2998,10.9497 -1.8082,4.1856 -2.7122,8.6392 -2.7122,13.3271 0,4.7217 0.904,9.1752 2.7122,13.3608 1.7748,4.1856 4.2191,7.8355 7.2998,10.95 3.0807,3.1141 6.6972,5.5584 10.8828,7.4001 4.1859,1.8417 8.7063,2.7459 13.5618,2.7459 4.7548,0 9.2421,-0.9042 13.4277,-2.7459 4.1856,-1.8417 7.8355,-4.3197 10.9497,-7.4673 3.0807,-3.1476 5.5587,-6.7641 7.3332,-10.9162 1.8082,-4.1857 2.7125,-8.6057 2.7125,-13.3274 0,-4.6879 -0.9043,-9.108 -2.7125,-13.2936 -1.7745,-4.1522 -4.2525,-7.7687 -7.3332,-10.9163 -3.1142,-3.1476 -6.7641,-5.6256 -10.9497,-7.4673 -4.1856,-1.8416 -8.6729,-2.7459 -13.4277,-2.7459 z m 80.2312,44.6363 c -2.9131,0 -5.3575,-0.9711 -7.2998,-2.8797 -1.9085,-1.9423 -2.8797,-4.3866 -2.8797,-7.3335 0,-2.9132 0.9712,-5.3575 2.8797,-7.2998 1.9423,-1.9086 4.3867,-2.8797 7.2998,-2.8797 h 44.7367 c 2.9469,0 5.3912,0.9711 7.3335,2.8797 1.9086,1.9423 2.8797,4.3866 2.8797,7.2998 0,2.9469 -0.9711,5.3912 -2.8797,7.3335 -1.9423,1.9086 -4.3866,2.8797 -7.3335,2.8797 z m 123.8298,-44.6363 c -4.8554,0 -9.3758,0.9043 -13.5618,2.7459 -4.1856,1.8417 -7.802,4.2863 -10.8827,7.4004 -3.0807,3.1142 -5.5251,6.7641 -7.2998,10.9497 -1.8082,4.1856 -2.7122,8.6392 -2.7122,13.3271 0,4.7217 0.904,9.1752 2.7122,13.3608 1.7747,4.1856 4.2191,7.8355 7.2998,10.95 3.0807,3.1141 6.6971,5.5584 10.8827,7.4001 4.186,1.8417 8.7064,2.7459 13.5618,2.7459 4.7549,0 9.2421,-0.9042 13.4277,-2.7459 4.1857,-1.8417 7.8356,-4.3197 10.9497,-7.4673 3.0807,-3.1476 5.5588,-6.7641 7.3332,-10.9162 1.8083,-4.1857 2.7125,-8.6057 2.7125,-13.3274 0,-4.6879 -0.9042,-9.108 -2.7125,-13.2936 -1.7744,-4.1522 -4.2525,-7.7687 -7.3332,-10.9163 -3.1141,-3.1476 -6.764,-5.6256 -10.9497,-7.4673 -4.1856,-1.8416 -8.6728,-2.7459 -13.4277,-2.7459 z m 34.4231,79.16 v -1.9423 c -4.9224,3.9178 -10.2467,6.9316 -16.0061,9.0077 -5.7594,2.1095 -11.8874,3.1476 -18.417,3.1476 -15.2025,0 -28.1279,-5.3578 -38.8769,-16.073 -10.7152,-10.749 -16.073,-23.6744 -16.073,-38.8769 0,-15.1688 5.3578,-28.0942 16.073,-38.8432 10.749,-10.7152 23.6744,-16.073 38.8769,-16.073 15.035,0 27.9604,5.3578 38.8432,16.073 10.7152,10.749 16.073,23.6744 16.073,38.8432 v 44.7369 c 0,2.8126 -1.0046,5.2237 -2.9801,7.2326 -2.0092,1.9758 -4.42,2.9804 -7.2329,2.9804 -2.8462,0 -5.2908,-1.0046 -7.3,-2.9804 -1.9755,-2.0089 -2.9801,-4.42 -2.9801,-7.2326 z" />
  <path
     id="path20"
     style="fill:#334b88;fill-rule:evenodd"
     d="m 1336.5013,613.4462 c 8.7001,0 16.0001,2.8999 21.8001,8.6001 5.7002,5.7999 8.6,13.1 8.6,21.9002 0,8.6 -3.2,16.1002 -9.6001,22.5002 -30.3001,26.6001 -66.0004,39.9002 -107.0007,39.9002 -45.3005,0 -84.0008,-16.0001 -116.0011,-48.0004 -32.0001,-32.1001 -48.0002,-70.7006 -48.0002,-116.1009 0,-45.3005 16.0001,-83.9007 48.0002,-116.0011 32.0003,-32 70.7006,-48.0002 116.0011,-48.0002 41.2004,0 76.9005,13.2999 107.0007,39.9002 7.0002,6.2003 10.5001,13.9003 10.5001,23.1001 0,8.8002 -2.8998,16.1003 -8.6,22.0003 -5.8,5.9 -13.1,8.8001 -21.9002,8.8001 -7.4001,0 -14,-2.3 -19.9001,-7.0001 -9.9,-8.5 -20.4,-14.8 -31.3001,-19.1001 -11.0001,-4.2999 -22.9003,-6.5002 -35.8004,-6.5002 -14.2002,0 -27.6001,2.7 -40.1004,8.1003 -12.5002,5.3 -23.4002,12.7001 -32.8002,21.9002 -9.4,9.2999 -16.8001,20.2 -22.1003,32.7002 -5.4,12.4999 -8.1,25.9001 -8.1,40.1003 0,14.3002 2.7,27.7002 8.1,40.2004 5.3002,12.4999 12.7003,23.4 22.1003,32.7002 9.4,9.2001 20.3,16.6002 32.8002,21.9002 12.5003,5.4 25.9002,8.1 40.1004,8.1 12.9001,0 24.8003,-2.0999 35.8004,-6.3 10.9001,-4.2001 21.3001,-10.5001 31.0002,-18.9 5.4998,-4.2001 11.8999,-6.3003 19.4001,-6.5002 z" />
</svg>
